<svg width="592" height="582" viewBox="0 0 592 582" fill="none" xmlns="http://www.w3.org/2000/svg">
<rect width="592" height="582" fill="#E6E6E6"/>
<rect width="592" height="145" fill="#1A1A1A"/>
<rect y="145" width="592" height="146" fill="#E8E5E5"/>
<rect y="291" width="592" height="145" fill="#E24F2E"/>
<rect y="436" width="592" height="146" fill="#F1A062"/>
<path d="M25.2226 25.232H27.5624L31.1408 31.4529H31.2876L34.8476 25.232H37.2057L32.2418 33.5357V38.9033H30.1773V33.5357L25.2226 25.232ZM42.1289 34.4716H44.1566L45.588 36.3342L46.2486 37.16L48.5241 40.1328H46.4138L44.8998 38.1509L44.3768 37.4261L42.1289 34.4716ZM42.817 39.0868C41.6426 39.0868 40.5904 38.8054 39.6607 38.2427C38.7309 37.6799 37.9969 36.8756 37.4586 35.8296C36.9203 34.7775 36.6511 33.5265 36.6511 32.0768C36.6511 30.6149 36.9203 29.3609 37.4586 28.3149C37.9969 27.2628 38.7309 26.4554 39.6607 25.8926C40.5904 25.3299 41.6426 25.0485 42.817 25.0485C44.0037 25.0485 45.0589 25.3299 45.9825 25.8926C46.9062 26.4554 47.6341 27.2628 48.1663 28.3149C48.7046 29.3609 48.9737 30.6149 48.9737 32.0768C48.9737 33.5327 48.7046 34.7836 48.1663 35.8296C47.6341 36.8756 46.9062 37.6799 45.9825 38.2427C45.0589 38.8054 44.0037 39.0868 42.817 39.0868ZM42.817 37.2059C43.6061 37.2059 44.3095 37.0101 44.9273 36.6186C45.5452 36.2272 46.0315 35.6491 46.3862 34.8845C46.7471 34.1199 46.9276 33.184 46.9276 32.0768C46.9276 30.9635 46.7471 30.0246 46.3862 29.26C46.0315 28.4892 45.5452 27.9081 44.9273 27.5167C44.3095 27.1252 43.6061 26.9294 42.817 26.9294C42.034 26.9294 41.3306 27.1252 40.7067 27.5167C40.0889 27.9081 39.5995 28.4892 39.2386 29.26C38.8777 30.0246 38.6973 30.9635 38.6973 32.0768C38.6973 33.184 38.8777 34.1199 39.2386 34.8845C39.5995 35.6491 40.0889 36.2272 40.7067 36.6186C41.3306 37.0101 42.034 37.2059 42.817 37.2059Z" fill="white"/>
<path d="M26.2778 185.342V171.671H31.1591C32.2173 171.671 33.0951 171.867 33.7925 172.258C34.4898 172.644 35.0128 173.173 35.3614 173.846C35.7101 174.512 35.8844 175.265 35.8844 176.103C35.8844 176.941 35.7101 177.696 35.3614 178.369C35.0128 179.036 34.4867 179.565 33.7833 179.956C33.0859 180.342 32.2051 180.534 31.1408 180.534H27.8009V178.791H30.9481C31.6271 178.791 32.1745 178.675 32.5905 178.442C33.0125 178.21 33.3184 177.892 33.508 177.488C33.7038 177.078 33.8016 176.616 33.8016 176.103C33.8016 175.583 33.7038 175.124 33.508 174.726C33.3184 174.323 33.0125 174.008 32.5905 173.781C32.1684 173.555 31.6179 173.442 30.9389 173.442H28.3423V185.342H26.2778ZM36.9264 185.342V171.671H38.9909V183.571H45.1843V185.342H36.9264ZM48.0246 185.342H45.8317L50.7497 171.671H53.1353L58.0441 185.342H55.8604L51.9884 174.157H51.8783L48.0246 185.342ZM48.3916 179.993H55.4842V181.718H48.3916V179.993ZM56.3335 173.442V171.671H66.9219V173.442H62.6645V185.342H60.6092V173.442H56.3335ZM69.9457 171.671V185.342H67.8813V171.671H69.9457ZM82.6496 171.671V185.342H80.7228L73.7953 175.323H73.6577V185.342H71.5933V171.671H73.5017L80.4567 181.709H80.5851V171.671H82.6496ZM93.0963 171.671H95.1608V180.663C95.1608 181.617 94.9345 182.464 94.4818 183.204C94.0353 183.938 93.4052 184.516 92.5917 184.939C91.7781 185.355 90.8239 185.562 89.729 185.562C88.6402 185.562 87.6859 185.355 86.8662 184.939C86.0527 184.516 85.4196 183.938 84.9669 183.204C84.5204 182.464 84.2971 181.617 84.2971 180.663V171.671H86.3616V180.498C86.3616 181.115 86.4962 181.666 86.7653 182.149C87.0406 182.626 87.429 183.003 87.9306 183.278C88.4383 183.553 89.0378 183.691 89.729 183.691C90.4263 183.691 91.0258 183.553 91.5273 183.278C92.0289 183.003 92.4143 182.626 92.6834 182.149C92.9587 181.666 93.0963 181.115 93.0963 180.498V171.671ZM96.7992 171.671H99.3132L103.662 182.296H103.818L108.177 171.671H110.727V185.342H108.709V175.451H108.58L104.534 185.324H102.901L98.9003 175.442H98.7719V185.342H96.7992V171.671Z" fill="#1A1A1A"/>
<path d="M30.8563 330.749C29.8348 330.749 28.9478 330.59 28.1955 330.272C27.4492 329.948 26.865 329.486 26.443 328.886C26.0209 328.287 25.7854 327.574 25.7365 326.749H27.8101C27.8529 327.244 28.012 327.657 28.2872 327.987C28.5686 328.311 28.9326 328.553 29.3791 328.712C29.8256 328.871 30.315 328.951 30.8472 328.951C31.4283 328.951 31.9482 328.859 32.407 328.675C32.8657 328.492 33.2236 328.235 33.4805 327.905C33.7435 327.568 33.875 327.177 33.875 326.73C33.875 326.326 33.7588 325.996 33.5264 325.739C33.3 325.482 32.9911 325.271 32.5997 325.106C32.2082 324.935 31.7678 324.785 31.2784 324.657L29.6727 324.216C28.5717 323.923 27.7031 323.485 27.0669 322.904C26.4307 322.317 26.1126 321.549 26.1126 320.601C26.1126 319.812 26.3237 319.124 26.7458 318.537C27.1739 317.949 27.752 317.494 28.4799 317.169C29.2139 316.839 30.0367 316.674 30.9481 316.674C31.8779 316.674 32.6945 316.839 33.3979 317.169C34.1075 317.494 34.6672 317.94 35.077 318.509C35.493 319.072 35.7101 319.717 35.7285 320.445H33.7282C33.6548 319.815 33.3612 319.326 32.8474 318.977C32.3397 318.628 31.6913 318.454 30.9022 318.454C30.3517 318.454 29.8684 318.543 29.4525 318.72C29.0427 318.891 28.7246 319.13 28.4983 319.436C28.278 319.742 28.1679 320.093 28.1679 320.491C28.1679 320.919 28.2995 321.268 28.5625 321.537C28.8316 321.806 29.1558 322.02 29.5351 322.179C29.9204 322.332 30.2905 322.458 30.6453 322.555L31.9757 322.913C32.41 323.023 32.8566 323.17 33.3153 323.354C33.7741 323.537 34.1992 323.779 34.5907 324.079C34.9883 324.372 35.3064 324.739 35.545 325.18C35.7896 325.614 35.912 326.14 35.912 326.758C35.912 327.522 35.7132 328.207 35.3156 328.813C34.918 329.412 34.343 329.887 33.5906 330.235C32.8382 330.578 31.9268 330.749 30.8563 330.749ZM38.0733 330.529H35.8804L40.7984 316.857H43.184L48.0929 330.529H45.9091L42.0371 319.344H41.927L38.0733 330.529ZM38.4403 325.18H45.5329V326.905H38.4403V325.18ZM48.6944 330.529V316.857H50.7589V328.758H56.9523V330.529H48.6944ZM57.9483 316.857H60.4624L64.8115 327.483H64.9675L69.3258 316.857H71.8766V330.529H69.858V320.638H69.7295L65.6832 330.51H64.05L60.0495 320.629H59.921V330.529H57.9483V316.857ZM79.2404 330.712C78.0659 330.712 77.0138 330.431 76.0841 329.868C75.1543 329.305 74.4203 328.501 73.882 327.455C73.3437 326.403 73.0745 325.152 73.0745 323.702C73.0745 322.24 73.3437 320.986 73.882 319.94C74.4203 318.888 75.1543 318.081 76.0841 317.518C77.0138 316.955 78.0659 316.674 79.2404 316.674C80.4271 316.674 81.4822 316.955 82.4059 317.518C83.3296 318.081 84.0575 318.888 84.5896 319.94C85.1279 320.986 85.3971 322.24 85.3971 323.702C85.3971 325.158 85.1279 326.409 84.5896 327.455C84.0575 328.501 83.3296 329.305 82.4059 329.868C81.4822 330.431 80.4271 330.712 79.2404 330.712ZM79.2404 328.831C80.0295 328.831 80.7329 328.636 81.3507 328.244C81.9685 327.853 82.4548 327.275 82.8096 326.51C83.1705 325.745 83.351 324.809 83.351 323.702C83.351 322.589 83.1705 321.65 82.8096 320.885C82.4548 320.115 81.9685 319.534 81.3507 319.142C80.7329 318.751 80.0295 318.555 79.2404 318.555C78.4574 318.555 77.754 318.751 77.1301 319.142C76.5122 319.534 76.0229 320.115 75.662 320.885C75.3011 321.65 75.1206 322.589 75.1206 323.702C75.1206 324.809 75.3011 325.745 75.662 326.51C76.0229 327.275 76.5122 327.853 77.1301 328.244C77.754 328.636 78.4574 328.831 79.2404 328.831ZM97.6606 316.857V330.529H95.7337L88.8063 320.509H88.6687V330.529H86.6042V316.857H88.5127L95.4676 326.895H95.5961V316.857H97.6606ZM102.928 330.529V316.857H107.81C108.868 316.857 109.746 317.041 110.443 317.408C111.14 317.769 111.663 318.274 112.012 318.922C112.361 319.564 112.535 320.307 112.535 321.152C112.535 321.983 112.361 322.717 112.012 323.354C111.663 323.99 111.137 324.482 110.434 324.831C109.736 325.18 108.856 325.354 107.791 325.354H104.112V323.592H107.599C108.278 323.592 108.825 323.494 109.241 323.299C109.663 323.103 109.969 322.825 110.159 322.464C110.354 322.103 110.452 321.665 110.452 321.152C110.452 320.632 110.354 320.185 110.159 319.812C109.963 319.433 109.654 319.142 109.232 318.94C108.816 318.732 108.268 318.628 107.589 318.628H104.993V330.529H102.928ZM110.709 330.529L107.397 324.354H109.681L113.058 330.529H110.709ZM113.705 330.529V316.857H122.284V318.628H115.77V322.748H121.826V324.51H115.77V328.758H122.349V330.529H113.705ZM128.107 330.529H124.73V328.721H127.987C129.027 328.721 129.893 328.529 130.584 328.143C131.275 327.752 131.792 327.18 132.135 326.427C132.477 325.669 132.649 324.751 132.649 323.675C132.649 322.604 132.477 321.696 132.135 320.95C131.798 320.203 131.294 319.638 130.621 319.252C129.948 318.861 129.113 318.665 128.116 318.665H124.657V316.857H128.244C129.584 316.857 130.734 317.13 131.694 317.674C132.655 318.218 133.392 319.001 133.906 320.023C134.419 321.038 134.676 322.256 134.676 323.675C134.676 325.1 134.416 326.323 133.896 327.345C133.383 328.366 132.636 329.152 131.658 329.703C130.679 330.254 129.495 330.529 128.107 330.529ZM125.739 316.857V330.529H123.675V316.857H125.739Z" fill="white"/>
<path d="M30.8563 477.187C29.8348 477.187 28.9478 477.028 28.1955 476.71C27.4492 476.386 26.865 475.924 26.443 475.325C26.0209 474.725 25.7854 474.013 25.7365 473.187H27.8101C27.8529 473.682 28.012 474.095 28.2872 474.426C28.5686 474.75 28.9326 474.992 29.3791 475.151C29.8256 475.31 30.315 475.389 30.8472 475.389C31.4283 475.389 31.9482 475.297 32.407 475.114C32.8657 474.93 33.2236 474.673 33.4805 474.343C33.7435 474.007 33.875 473.615 33.875 473.169C33.875 472.765 33.7588 472.435 33.5264 472.178C33.3 471.921 32.9911 471.71 32.5997 471.545C32.2082 471.373 31.7678 471.223 31.2784 471.095L29.6727 470.655C28.5717 470.361 27.7031 469.924 27.0669 469.343C26.4307 468.755 26.1126 467.988 26.1126 467.04C26.1126 466.25 26.3237 465.562 26.7458 464.975C27.1739 464.388 27.752 463.932 28.4799 463.608C29.2139 463.278 30.0367 463.112 30.9481 463.112C31.8779 463.112 32.6945 463.278 33.3979 463.608C34.1075 463.932 34.6672 464.379 35.077 464.948C35.493 465.51 35.7101 466.156 35.7285 466.884H33.7282C33.6548 466.253 33.3612 465.764 32.8474 465.415C32.3397 465.067 31.6913 464.892 30.9022 464.892C30.3517 464.892 29.8684 464.981 29.4525 465.159C29.0427 465.33 28.7246 465.568 28.4983 465.874C28.278 466.18 28.1679 466.532 28.1679 466.929C28.1679 467.358 28.2995 467.706 28.5625 467.975C28.8316 468.245 29.1558 468.459 29.5351 468.618C29.9204 468.771 30.2905 468.896 30.6453 468.994L31.9757 469.352C32.41 469.462 32.8566 469.609 33.3153 469.792C33.7741 469.976 34.1992 470.217 34.5907 470.517C34.9883 470.811 35.3064 471.178 35.545 471.618C35.7896 472.052 35.912 472.578 35.912 473.196C35.912 473.961 35.7132 474.646 35.3156 475.251C34.918 475.851 34.343 476.325 33.5906 476.674C32.8382 477.016 31.9268 477.187 30.8563 477.187ZM38.0733 476.967H35.8804L40.7984 463.296H43.184L48.0929 476.967H45.9091L42.0371 465.782H41.927L38.0733 476.967ZM38.4403 471.618H45.5329V473.343H38.4403V471.618ZM59.7508 463.296V476.967H57.8239L50.8965 466.948H50.7589V476.967H48.6944V463.296H50.6029L57.5578 473.334H57.6863V463.296H59.7508ZM65.83 476.967H62.4535V475.16H65.7107C66.7506 475.16 67.6161 474.967 68.3074 474.582C68.9986 474.19 69.5155 473.618 69.858 472.866C70.2005 472.107 70.3718 471.19 70.3718 470.113C70.3718 469.043 70.2005 468.134 69.858 467.388C69.5216 466.642 69.0169 466.076 68.3441 465.691C67.6712 465.299 66.8362 465.103 65.8392 465.103H62.3801V463.296H65.9676C67.3072 463.296 68.4572 463.568 69.4176 464.113C70.3779 464.657 71.115 465.44 71.6289 466.461C72.1427 467.477 72.3996 468.694 72.3996 470.113C72.3996 471.539 72.1396 472.762 71.6197 473.783C71.1059 474.805 70.3596 475.591 69.3809 476.141C68.4022 476.692 67.2185 476.967 65.83 476.967ZM63.4627 463.296V476.967H61.3983V463.296H63.4627ZM71.8542 463.296H74.1939L77.7723 469.517H77.9191L81.4792 463.296H83.8373L78.8734 471.6V476.967H76.8089V471.6L71.8542 463.296ZM88.0407 476.967V463.296H93.0596C94.0261 463.296 94.8274 463.455 95.4636 463.773C96.0998 464.091 96.5738 464.522 96.8858 465.067C97.2039 465.605 97.3629 466.211 97.3629 466.884C97.3629 467.452 97.2559 467.933 97.0418 468.324C96.8338 468.716 96.5555 469.028 96.2068 469.26C95.8581 469.492 95.4728 469.664 95.0507 469.774V469.902C95.5095 469.927 95.956 470.074 96.3903 470.343C96.8246 470.612 97.1824 470.994 97.4638 471.49C97.7513 471.979 97.8951 472.578 97.8951 473.288C97.8951 473.985 97.7299 474.612 97.3996 475.169C97.0754 475.719 96.5738 476.157 95.8948 476.481C95.2159 476.805 94.3442 476.967 93.2798 476.967H88.0407ZM90.1052 475.206H93.078C94.0689 475.206 94.7785 475.013 95.2067 474.628C95.6349 474.242 95.849 473.762 95.849 473.187C95.849 472.753 95.7389 472.358 95.5186 472.003C95.3045 471.642 94.9956 471.355 94.5919 471.141C94.1882 470.927 93.7111 470.82 93.1606 470.82H90.1052V475.206ZM90.1052 469.214H92.8761C93.3349 469.214 93.7508 469.125 94.124 468.948C94.4971 468.771 94.7907 468.52 95.0048 468.196C95.225 467.865 95.3351 467.483 95.3351 467.049C95.3351 466.486 95.1363 466.015 94.7387 465.636C94.3473 465.25 93.7447 465.058 92.9312 465.058H90.1052V469.214ZM98.9829 476.967V463.296H103.864C104.922 463.296 105.8 463.479 106.498 463.846C107.195 464.207 107.718 464.712 108.067 465.36C108.415 466.003 108.59 466.746 108.59 467.59C108.59 468.422 108.415 469.156 108.067 469.792C107.718 470.428 107.192 470.921 106.488 471.269C105.791 471.618 104.91 471.792 103.846 471.792H100.167V470.031H103.653C104.332 470.031 104.88 469.933 105.296 469.737C105.718 469.541 106.023 469.263 106.213 468.902C106.409 468.541 106.507 468.104 106.507 467.59C106.507 467.07 106.409 466.624 106.213 466.25C106.017 465.871 105.708 465.581 105.286 465.379C104.87 465.171 104.323 465.067 103.644 465.067H101.047V476.967H98.9829ZM106.764 476.967L103.451 470.792H105.736L109.113 476.967H106.764ZM115.485 477.151C114.311 477.151 113.259 476.869 112.329 476.307C111.399 475.744 110.665 474.94 110.127 473.894C109.589 472.841 109.32 471.591 109.32 470.141C109.32 468.679 109.589 467.425 110.127 466.379C110.665 465.327 111.399 464.519 112.329 463.957C113.259 463.394 114.311 463.112 115.485 463.112C116.672 463.112 117.727 463.394 118.651 463.957C119.575 464.519 120.302 465.327 120.835 466.379C121.373 467.425 121.642 468.679 121.642 470.141C121.642 471.597 121.373 472.848 120.835 473.894C120.302 474.94 119.575 475.744 118.651 476.307C117.727 476.869 116.672 477.151 115.485 477.151ZM115.485 475.27C116.274 475.27 116.978 475.074 117.596 474.683C118.214 474.291 118.7 473.713 119.055 472.948C119.416 472.184 119.596 471.248 119.596 470.141C119.596 469.028 119.416 468.089 119.055 467.324C118.7 466.553 118.214 465.972 117.596 465.581C116.978 465.189 116.274 464.993 115.485 464.993C114.702 464.993 113.999 465.189 113.375 465.581C112.757 465.972 112.268 466.553 111.907 467.324C111.546 468.089 111.366 469.028 111.366 470.141C111.366 471.248 111.546 472.184 111.907 472.948C112.268 473.713 112.757 474.291 113.375 474.683C113.999 475.074 114.702 475.27 115.485 475.27ZM125.382 476.967L121.601 463.296H123.767L126.428 473.884H126.556L129.327 463.296H131.474L134.236 473.894H134.374L137.025 463.296H139.209L135.401 476.967H133.328L130.456 466.737H130.346L127.474 476.967H125.382ZM150.83 463.296V476.967H148.903L141.976 466.948H141.838V476.967H139.774V463.296H141.682L148.637 473.334H148.766V463.296H150.83Z" fill="white"/>
<path d="M31.2417 117.754L33.4897 104.083H35.0862L32.8474 117.754H31.2417ZM25.0483 114.093L25.3236 112.497H35.6826L35.4165 114.093H25.0483ZM26.443 117.754L28.6818 104.083H30.2783L28.0395 117.754H26.443ZM25.8557 109.35L26.1218 107.744H36.4625L36.2148 109.35H25.8557ZM41.6426 104.083V117.754H39.6056V106.157H39.5139L36.2658 108.295V106.313L39.6607 104.083H41.6426ZM44.4462 117.754H42.2533L47.1713 104.083H49.5569L54.4657 117.754H52.282L48.41 106.57H48.2999L44.4462 117.754ZM44.8132 112.405H51.9058V114.13H44.8132V112.405ZM59.1778 104.083V117.754H57.1409V106.157H57.0491L53.8011 108.295V106.313L57.196 104.083H59.1778ZM61.9815 117.754H59.7886L64.7066 104.083H67.0922L72.001 117.754H69.8173L65.9452 106.57H65.8351L61.9815 117.754ZM62.3485 112.405H69.4411V114.13H62.3485V112.405ZM76.7131 104.083V117.754H74.6762V106.157H74.5844L71.3363 108.295V106.313L74.7312 104.083H76.7131ZM79.5168 117.754H77.3238L82.2418 104.083H84.6274L89.5363 117.754H87.3525L83.4805 106.57H83.3704L79.5168 117.754ZM79.8838 112.405H86.9764V114.13H79.8838V112.405Z" fill="white"/>
<path d="M31.2417 264.193L33.4897 250.522H35.0862L32.8474 264.193H31.2417ZM25.0483 260.532L25.3236 258.936H35.6826L35.4165 260.532H25.0483ZM26.443 264.193L28.6818 250.522H30.2783L28.0395 264.193H26.443ZM25.8557 255.789L26.1218 254.183H36.4625L36.2148 255.789H25.8557ZM36.8897 264.193V250.522H45.4687V252.293H38.9542V256.413H45.0099V258.174H38.9542V262.423H45.5329V264.193H36.8897ZM51.2819 264.377C50.3276 264.377 49.4835 264.212 48.7494 263.881C48.0215 263.551 47.4496 263.098 47.0337 262.523C46.6238 261.942 46.4189 261.282 46.4189 260.542C46.4189 259.973 46.5382 259.444 46.7767 258.954C47.0214 258.465 47.3517 258.058 47.7677 257.734C48.1836 257.41 48.6516 257.202 49.1715 257.11V257.027C48.4925 256.862 47.9451 256.498 47.5291 255.936C47.1193 255.367 46.9144 254.718 46.9144 253.99C46.9144 253.287 47.1009 252.66 47.4741 252.109C47.8533 251.559 48.3702 251.128 49.0247 250.816C49.6853 250.498 50.4377 250.339 51.2819 250.339C52.1138 250.339 52.857 250.498 53.5115 250.816C54.1721 251.128 54.689 251.559 55.0621 252.109C55.4414 252.66 55.631 253.287 55.631 253.99C55.631 254.718 55.423 255.367 55.0071 255.936C54.5972 256.498 54.0589 256.862 53.3922 257.027V257.11C53.906 257.202 54.3709 257.41 54.7869 257.734C55.2028 258.058 55.5331 258.465 55.7778 258.954C56.0225 259.444 56.1448 259.973 56.1448 260.542C56.1448 261.282 55.9368 261.942 55.5209 262.523C55.1049 263.098 54.5299 263.551 53.7959 263.881C53.068 264.212 52.23 264.377 51.2819 264.377ZM51.2819 262.689C51.8446 262.689 52.334 262.597 52.7499 262.413C53.1659 262.224 53.487 261.958 53.7133 261.615C53.9397 261.273 54.0528 260.875 54.0528 260.422C54.0528 259.945 53.9305 259.526 53.6858 259.165C53.4473 258.798 53.12 258.511 52.704 258.303C52.2881 258.089 51.814 257.982 51.2819 257.982C50.7436 257.982 50.2634 258.086 49.8413 258.294C49.4254 258.502 49.0981 258.789 48.8596 259.156C48.621 259.523 48.5017 259.945 48.5017 260.422C48.5017 260.875 48.6149 261.273 48.8412 261.615C49.0675 261.958 49.3887 262.224 49.8046 262.413C50.2206 262.597 50.713 262.689 51.2819 262.689ZM51.2819 256.339C51.7345 256.339 52.1352 256.247 52.4838 256.064C52.8386 255.88 53.1169 255.627 53.3188 255.302C53.5268 254.978 53.6308 254.599 53.6308 254.165C53.6308 253.736 53.5298 253.363 53.328 253.045C53.1322 252.727 52.857 252.479 52.5022 252.302C52.1535 252.125 51.7467 252.036 51.2819 252.036C50.8109 252.036 50.398 252.125 50.0432 252.302C49.6884 252.479 49.4131 252.727 49.2174 253.045C49.0217 253.363 48.9238 253.736 48.9238 254.165C48.9238 254.599 49.0247 254.978 49.2266 255.302C49.4284 255.627 49.7037 255.88 50.0524 256.064C50.4071 256.247 50.817 256.339 51.2819 256.339ZM57.3428 264.193V250.522H65.9218V252.293H59.4072V256.413H65.463V258.174H59.4072V262.423H65.986V264.193H57.3428ZM71.6432 264.377C70.8051 264.377 70.0528 264.218 69.386 263.9C68.7254 263.576 68.1963 263.132 67.7987 262.569C67.4011 262 67.19 261.355 67.1656 260.633H69.1658C69.2147 261.214 69.4747 261.695 69.9457 262.074C70.4167 262.453 70.9825 262.643 71.6432 262.643C72.1692 262.643 72.6341 262.52 73.0378 262.276C73.4415 262.031 73.7596 261.698 73.9921 261.276C74.2245 260.847 74.3407 260.358 74.3407 259.808C74.3407 259.257 74.2214 258.765 73.9829 258.33C73.7443 257.89 73.414 257.544 72.9919 257.293C72.576 257.043 72.0958 256.917 71.5514 256.917C71.1355 256.917 70.7195 256.991 70.3036 257.137C69.8876 257.278 69.5512 257.462 69.2943 257.688L67.395 257.413L68.1657 250.522H75.6803V252.293H69.8907L69.4594 256.119H69.5328C69.7958 255.856 70.1476 255.642 70.588 255.477C71.0345 255.305 71.5147 255.22 72.0285 255.22C72.8604 255.22 73.6006 255.419 74.249 255.816C74.9035 256.208 75.4173 256.746 75.7904 257.431C76.1636 258.11 76.3501 258.89 76.3501 259.771C76.3501 260.658 76.1483 261.45 75.7446 262.147C75.3408 262.838 74.7842 263.383 74.0746 263.78C73.3712 264.178 72.5607 264.377 71.6432 264.377ZM77.5573 264.193V250.522H86.1362V252.293H79.6217V256.413H85.6775V258.174H79.6217V262.423H86.2005V264.193H77.5573ZM91.8577 264.377C91.0196 264.377 90.2673 264.218 89.6005 263.9C88.9399 263.576 88.4108 263.132 88.0132 262.569C87.6156 262 87.4045 261.355 87.3801 260.633H89.3803C89.4292 261.214 89.6892 261.695 90.1602 262.074C90.6312 262.453 91.197 262.643 91.8577 262.643C92.3837 262.643 92.8486 262.52 93.2523 262.276C93.656 262.031 93.9741 261.698 94.2066 261.276C94.439 260.847 94.5552 260.358 94.5552 259.808C94.5552 259.257 94.4359 258.765 94.1974 258.33C93.9588 257.89 93.6285 257.544 93.2064 257.293C92.7905 257.043 92.3103 256.917 91.7659 256.917C91.35 256.917 90.934 256.991 90.518 257.137C90.1021 257.278 89.7657 257.462 89.5088 257.688L87.6094 257.413L88.3802 250.522H95.8948V252.293H90.1052L89.6739 256.119H89.7473C90.0103 255.856 90.3621 255.642 90.8025 255.477C91.249 255.305 91.7292 255.22 92.243 255.22C93.0749 255.22 93.8151 255.419 94.4635 255.816C95.118 256.208 95.6318 256.746 96.0049 257.431C96.3781 258.11 96.5646 258.89 96.5646 259.771C96.5646 260.658 96.3628 261.45 95.9591 262.147C95.5553 262.838 94.9987 263.383 94.2891 263.78C93.5857 264.178 92.7752 264.377 91.8577 264.377Z" fill="#1A1A1A"/>
<path d="M31.2417 409.381L33.4897 395.71H35.0862L32.8474 409.381H31.2417ZM25.0483 405.72L25.3236 404.123H35.6826L35.4165 405.72H25.0483ZM26.443 409.381L28.6818 395.71H30.2783L28.0395 409.381H26.443ZM25.8557 400.976L26.1218 399.371H36.4625L36.2148 400.976H25.8557ZM36.8897 409.381V395.71H45.4687V397.48H38.9542V401.6H45.0099V403.362H38.9542V407.61H45.5329V409.381H36.8897ZM46.6758 409.381V407.894L51.3002 403.087C51.7896 402.573 52.1933 402.12 52.5114 401.729C52.8356 401.331 53.0772 400.955 53.2362 400.6C53.4014 400.245 53.484 399.869 53.484 399.471C53.484 399.013 53.3769 398.618 53.1628 398.288C52.9487 397.957 52.6582 397.704 52.2912 397.526C51.9241 397.349 51.5082 397.26 51.0433 397.26C50.5539 397.26 50.1288 397.361 49.7679 397.563C49.407 397.759 49.1256 398.04 48.9238 398.407C48.728 398.768 48.6302 399.193 48.6302 399.682H46.6666C46.6666 398.851 46.8563 398.123 47.2355 397.499C47.6209 396.875 48.1469 396.392 48.8137 396.049C49.4865 395.7 50.245 395.526 51.0892 395.526C51.9517 395.526 52.7102 395.697 53.3647 396.04C54.0192 396.382 54.5299 396.847 54.897 397.434C55.264 398.016 55.4475 398.673 55.4475 399.407C55.4475 399.915 55.3527 400.41 55.1631 400.894C54.9795 401.377 54.6523 401.918 54.1813 402.518C53.7164 403.111 53.068 403.827 52.2361 404.665L49.5202 407.509V407.619H55.6677V409.381H46.6758ZM56.2784 406.711V405.05L62.1782 395.71H63.4903V398.169H62.6461L58.4255 404.848V404.958H66.5273V406.711H56.2784ZM62.7379 409.381V406.206L62.7562 405.445V395.71H64.7198V409.381H62.7379ZM67.661 409.381V395.71H76.1483V397.48H69.7255V401.912H75.5335V403.674H69.7255V409.381H67.661ZM77.1352 409.381V407.894L81.7596 403.087C82.2489 402.573 82.6527 402.12 82.9707 401.729C83.2949 401.331 83.5366 400.955 83.6956 400.6C83.8608 400.245 83.9433 399.869 83.9433 399.471C83.9433 399.013 83.8363 398.618 83.6222 398.288C83.4081 397.957 83.1175 397.704 82.7505 397.526C82.3835 397.349 81.9676 397.26 81.5027 397.26C81.0133 397.26 80.5882 397.361 80.2273 397.563C79.8664 397.759 79.585 398.04 79.3832 398.407C79.1874 398.768 79.0895 399.193 79.0895 399.682H77.126C77.126 398.851 77.3156 398.123 77.6949 397.499C78.0803 396.875 78.6063 396.392 79.2731 396.049C79.9459 395.7 80.7044 395.526 81.5486 395.526C82.411 395.526 83.1695 395.697 83.8241 396.04C84.4786 396.382 84.9893 396.847 85.3563 397.434C85.7234 398.016 85.9069 398.673 85.9069 399.407C85.9069 399.915 85.8121 400.41 85.6224 400.894C85.4389 401.377 85.1117 401.918 84.6407 402.518C84.1758 403.111 83.5274 403.827 82.6955 404.665L79.9796 407.509V407.619H86.1271V409.381H77.1352ZM87.4902 409.381V395.71H96.0692V397.48H89.5546V401.6H95.6104V403.362H89.5546V407.61H96.1334V409.381H87.4902Z" fill="white"/>
<path d="M31.2417 555.819L33.4897 542.148H35.0862L32.8474 555.819H31.2417ZM25.0483 552.158L25.3236 550.562H35.6826L35.4165 552.158H25.0483ZM26.443 555.819L28.6818 542.148H30.2783L28.0395 555.819H26.443ZM25.8557 547.415L26.1218 545.809H36.4625L36.2148 547.415H25.8557ZM36.8897 555.819V542.148H45.3769V543.919H38.9542V548.351H44.7622V550.112H38.9542V555.819H36.8897ZM51.3002 542.148V555.819H49.2633V544.222H49.1715L45.9234 546.36V544.378L49.3183 542.148H51.3002ZM54.1038 555.819H51.9109L56.8289 542.148H59.2145L64.1234 555.819H61.9396L58.0676 544.635H57.9575L54.1038 555.819ZM54.4709 550.47H61.5634V552.195H54.4709V550.47ZM69.2943 556.003C68.2421 556.003 67.3399 555.728 66.5875 555.177C65.8413 554.627 65.2693 553.831 64.8717 552.791C64.4802 551.745 64.2845 550.479 64.2845 548.993C64.2845 547.513 64.4833 546.249 64.8809 545.203C65.2785 544.151 65.8504 543.35 66.5967 542.799C67.3491 542.243 68.2483 541.964 69.2943 541.964C70.3464 541.964 71.2456 542.243 71.9918 542.799C72.7442 543.35 73.3161 544.151 73.7076 545.203C74.1052 546.249 74.304 547.513 74.304 548.993C74.304 550.479 74.1083 551.745 73.7168 552.791C73.3253 553.831 72.7564 554.627 72.0102 555.177C71.2639 555.728 70.3586 556.003 69.2943 556.003ZM69.2943 554.241C69.9365 554.241 70.4779 554.036 70.9183 553.626C71.3587 553.217 71.6952 552.62 71.9276 551.837C72.16 551.048 72.2763 550.1 72.2763 548.993C72.2763 547.88 72.16 546.931 71.9276 546.148C71.6952 545.359 71.3587 544.76 70.9183 544.35C70.4779 543.934 69.9365 543.726 69.2943 543.726C68.3461 543.726 67.6121 544.188 67.0922 545.112C66.5783 546.029 66.3214 547.323 66.3214 548.993C66.3214 550.1 66.4377 551.048 66.6701 551.837C66.9025 552.62 67.239 553.217 67.6794 553.626C68.1259 554.036 68.6642 554.241 69.2943 554.241ZM80.0713 556.003C79.4657 556.003 78.8663 555.896 78.2729 555.682C77.6796 555.468 77.1444 555.113 76.6672 554.617C76.1901 554.116 75.8048 553.443 75.5111 552.599C75.2236 551.755 75.0799 550.706 75.0799 549.452C75.0799 548.259 75.1992 547.201 75.4377 546.277C75.6824 545.347 76.028 544.564 76.4746 543.928C76.9272 543.286 77.4716 542.799 78.1078 542.469C78.7439 542.133 79.4596 541.964 80.2548 541.964C81.0684 541.964 81.7902 542.127 82.4202 542.451C83.0503 542.769 83.561 543.209 83.9525 543.772C84.3501 544.335 84.5978 544.977 84.6957 545.699H82.6771C82.5364 545.13 82.2612 544.668 81.8513 544.313C81.4415 543.952 80.9093 543.772 80.2548 543.772C79.2516 543.772 78.4687 544.209 77.9059 545.084C77.3493 545.953 77.071 547.164 77.071 548.718H77.1719C77.4104 548.332 77.701 548.002 78.0436 547.727C78.3861 547.445 78.7684 547.231 79.1905 547.084C79.6187 546.938 80.0744 546.864 80.5576 546.864C81.3467 546.864 82.0624 547.057 82.7047 547.442C83.353 547.828 83.8669 548.36 84.2461 549.039C84.6315 549.712 84.8242 550.485 84.8242 551.36C84.8242 552.229 84.6254 553.015 84.2278 553.718C83.8363 554.422 83.2827 554.978 82.567 555.388C81.8575 555.798 81.0256 556.003 80.0713 556.003ZM80.0621 554.269C80.5882 554.269 81.0561 554.14 81.466 553.883C81.8819 553.626 82.2122 553.281 82.4569 552.847C82.7016 552.406 82.8239 551.917 82.8239 551.378C82.8239 550.852 82.7047 550.375 82.4661 549.947C82.2336 549.519 81.9125 549.179 81.5027 548.929C81.099 548.672 80.6341 548.543 80.108 548.543C79.5881 548.543 79.1171 548.675 78.695 548.938C78.2729 549.201 77.9365 549.549 77.6857 549.984C77.441 550.418 77.3187 550.889 77.3187 551.397C77.3187 551.905 77.438 552.379 77.6765 552.819C77.9151 553.259 78.2393 553.611 78.6491 553.874C79.0651 554.137 79.5361 554.269 80.0621 554.269ZM85.8386 555.819V554.333L90.463 549.525C90.9524 549.011 91.3561 548.559 91.6742 548.167C91.9984 547.769 92.24 547.393 92.399 547.038C92.5642 546.684 92.6467 546.308 92.6467 545.91C92.6467 545.451 92.5397 545.057 92.3256 544.726C92.1115 544.396 91.821 544.142 91.4539 543.965C91.0869 543.787 90.671 543.699 90.2061 543.699C89.7167 543.699 89.2916 543.8 88.9307 544.001C88.5698 544.197 88.2884 544.479 88.0866 544.846C87.8908 545.206 87.793 545.632 87.793 546.121H85.8294C85.8294 545.289 86.0191 544.561 86.3983 543.937C86.7837 543.313 87.3097 542.83 87.9765 542.487C88.6493 542.139 89.4078 541.964 90.252 541.964C91.1145 541.964 91.873 542.136 92.5275 542.478C93.182 542.821 93.6927 543.286 94.0598 543.873C94.4268 544.454 94.6103 545.112 94.6103 545.846C94.6103 546.353 94.5155 546.849 94.3258 547.332C94.1423 547.815 93.8151 548.357 93.3441 548.956C92.8792 549.549 92.2308 550.265 91.3989 551.103L88.683 553.948V554.058H94.8305V555.819H85.8386Z" fill="white"/>
</svg>
