<svg width="36" height="33" viewBox="0 0 36 33" fill="none" xmlns="http://www.w3.org/2000/svg">
<path d="M30.3625 15.7546C32.98 16.4923 36.0001 19.5484 36.0001 24.1325C36.0001 31.1931 31.329 31.562 28.9531 31.3512C24.4833 30.9297 23.8793 21.0764 22.631 22.0776C20.7383 23.6056 23.3155 25.3971 23.7585 27.6628C24.282 30.1393 21.5015 31.2572 21.5015 31.2572C21.5015 31.2572 20.5401 31.6318 18.9293 31.6318C17.3186 31.6318 17.1188 31.6318 16.0122 31.1346C14.102 30.2763 13.3692 28.3478 13.8927 26.1875C14.4967 23.5002 16.792 20.813 15.745 19.4957C14.7383 18.1257 10.6712 31.4039 5.91948 32.7739C3.10068 33.5642 0 32.405 0 27.3467C0 18.0204 14.4564 13.1201 13.6913 11.1705C12.9262 9.22094 10.6309 13.9105 6.76512 13.9105C2.89934 13.9105 2.93961 7.64021 2.93961 7.64021C2.93961 3.05609 5.07384 0 10.6712 0C16.2282 0 16.4699 7.53483 18.9262 7.53483C21.3826 7.53483 24.4833 1.7915 28.188 1.7915C31.8525 1.7915 35.7988 4.32067 35.7988 7.64021C35.7988 10.9597 33.7854 13.9105 31.2082 13.9105C28.631 13.9105 23.6377 11.1705 23.6377 12.9093C23.6377 14.5954 27.0202 14.7535 30.3625 15.7546ZM23.2752 18.1257C25.5303 19.6538 30.7652 31.1931 32.2551 24.1325C33.2216 19.5484 24.4833 16.1762 22.4699 14.4901C21.141 13.3308 20.9799 12.1716 21.141 11.0651C21.3826 9.22094 22.0269 6.42831 26.5773 8.21981C31.0874 9.95862 33.1411 11.1178 33.1411 8.32519C33.1411 5.53257 26.0538 4.7422 23.2752 6.21755C20.4967 7.64021 20.3356 8.74672 18.6444 8.48327C16.9128 8.21981 12.4027 3.84645 9.82554 4.26798C7.20808 4.68951 6.52351 5.84871 6.52351 7.64021C6.52351 9.43171 9.86581 7.74559 12.3222 7.32406C14.7786 6.90253 15.745 7.85097 15.6242 10.8544C15.4229 15.4385 1.97316 21.8668 4.95304 25.7659C7.93291 29.6124 11.5974 15.175 15.1813 15.7546C17.2752 16.1235 18.0001 17.3354 17.6779 19.2849C17.396 21.0764 14.0135 26.4509 15.5839 26.4509C17.1142 26.4509 17.235 24.1325 18.6041 24.1325C19.9732 24.1325 19.9732 28.5586 21.141 27.0305C22.3088 25.5025 19.8122 22.9206 19.8122 20.7603C19.8122 18.5473 20.9799 16.5977 23.2752 18.1257Z" fill="#D04944"/>
</svg>
