<svg width="85" height="18" viewBox="0 0 85 18" fill="none" xmlns="http://www.w3.org/2000/svg">
<path d="M13.4705 0.994141V17H10.5486L3.5984 6.93457H3.45875V17H0.0857048V0.994141H3.05055L9.95778 11.0596H10.0974V0.994141H13.4705ZM23.621 17.2148C22.203 17.2148 20.9283 16.8926 19.7968 16.248C18.6652 15.6035 17.7701 14.6689 17.1112 13.4443C16.4524 12.2197 16.1229 10.7409 16.1229 9.00781C16.1229 7.26042 16.4524 5.77441 17.1112 4.5498C17.7701 3.31803 18.6652 2.38346 19.7968 1.74609C20.9283 1.10156 22.203 0.779297 23.621 0.779297C25.0389 0.779297 26.3137 1.10156 27.4452 1.74609C28.5767 2.38346 29.4683 3.31803 30.12 4.5498C30.7789 5.77441 31.1083 7.26042 31.1083 9.00781C31.1083 10.748 30.7789 12.2305 30.12 13.4551C29.4683 14.6797 28.5767 15.6143 27.4452 16.2588C26.3137 16.8962 25.0389 17.2148 23.621 17.2148ZM23.621 14.2285C24.4445 14.2285 25.1607 14.028 25.7694 13.627C26.3781 13.2259 26.8472 12.6387 27.1766 11.8652C27.5132 11.0846 27.6815 10.1322 27.6815 9.00781C27.6815 7.8763 27.5132 6.92025 27.1766 6.13965C26.8472 5.35905 26.3781 4.76823 25.7694 4.36719C25.1607 3.96615 24.4445 3.76562 23.621 3.76562C22.8046 3.76562 22.092 3.96615 21.4833 4.36719C20.8746 4.76823 20.3983 5.35905 20.0546 6.13965C19.718 6.92025 19.5497 7.8763 19.5497 9.00781C19.5497 10.1322 19.718 11.0846 20.0546 11.8652C20.3983 12.6387 20.8746 13.2259 21.4833 13.627C22.092 14.028 22.8046 14.2285 23.621 14.2285ZM33.7715 0.994141H37.9502L42.3545 11.7471H42.5371L46.9521 0.994141H51.1416V17H47.833V6.58008H47.7041L43.5469 16.9248H41.3125L37.1875 6.55859H37.0586V17H33.7715V0.994141ZM56.8448 17H53.2247L58.7462 0.994141H63.1075L68.6183 17H65.0089L60.9913 4.64648H60.8624L56.8448 17ZM56.63 10.7051H65.1915V13.3477H56.63V10.7051ZM76.3733 17H72.2053V14.0996H76.2229C77.2327 14.0996 78.0777 13.9242 78.758 13.5732C79.4455 13.2152 79.9612 12.6602 80.3049 11.9082C80.6558 11.1491 80.8313 10.1751 80.8313 8.98633C80.8313 7.80469 80.6558 6.83789 80.3049 6.08594C79.9612 5.33398 79.4455 4.78255 78.758 4.43164C78.0777 4.07357 77.2362 3.89453 76.2336 3.89453H72.1409V0.994141H76.427C78.0383 0.994141 79.4241 1.31641 80.5842 1.96094C81.7444 2.59831 82.636 3.51497 83.259 4.71094C83.8821 5.89974 84.1936 7.32487 84.1936 8.98633C84.1936 10.6549 83.8785 12.0872 83.2483 13.2832C82.6252 14.4792 81.73 15.3994 80.5627 16.0439C79.3954 16.6813 77.9989 17 76.3733 17ZM74.0744 0.994141V17H70.7014V0.994141H74.0744Z" fill="white"/>
</svg>
