<svg width="47" height="26" viewBox="0 0 47 26" fill="none" xmlns="http://www.w3.org/2000/svg">
<path d="M0.527344 0.452148H1.73145L3.81445 5.54102H3.88916L5.97656 0.452148H7.19824V7H6.23145V2.2627H6.16992L4.23193 6.99121H3.44971L1.53369 2.2583H1.47217V7H0.527344V0.452148ZM10.6351 7.08789C10.0726 7.08789 9.56871 6.95312 9.1234 6.68359C8.67809 6.41406 8.32652 6.02881 8.06871 5.52783C7.8109 5.02393 7.68199 4.4248 7.68199 3.73047C7.68199 3.03027 7.8109 2.42969 8.06871 1.92871C8.32652 1.4248 8.67809 1.03809 9.1234 0.768555C9.56871 0.499023 10.0726 0.364258 10.6351 0.364258C11.2035 0.364258 11.7088 0.499023 12.1512 0.768555C12.5936 1.03809 12.9422 1.4248 13.1971 1.92871C13.4549 2.42969 13.5838 3.03027 13.5838 3.73047C13.5838 4.42773 13.4549 5.02686 13.1971 5.52783C12.9422 6.02881 12.5936 6.41406 12.1512 6.68359C11.7088 6.95312 11.2035 7.08789 10.6351 7.08789ZM10.6351 6.18701C11.013 6.18701 11.35 6.09326 11.6459 5.90576C11.9418 5.71826 12.1747 5.44141 12.3446 5.0752C12.5174 4.70898 12.6039 4.26074 12.6039 3.73047C12.6039 3.19727 12.5174 2.74756 12.3446 2.38135C12.1747 2.01221 11.9418 1.73389 11.6459 1.54639C11.35 1.35889 11.013 1.26514 10.6351 1.26514C10.2601 1.26514 9.9232 1.35889 9.62437 1.54639C9.32848 1.73389 9.0941 2.01221 8.92125 2.38135C8.7484 2.74756 8.66197 3.19727 8.66197 3.73047C8.66197 4.26074 8.7484 4.70898 8.92125 5.0752C9.0941 5.44141 9.32848 5.71826 9.62437 5.90576C9.9232 6.09326 10.2601 6.18701 10.6351 6.18701ZM16.1946 7H14.5774V6.13428H16.1374C16.6355 6.13428 17.05 6.04199 17.3811 5.85742C17.7121 5.66992 17.9597 5.396 18.1237 5.03564C18.2878 4.67236 18.3698 4.23291 18.3698 3.71729C18.3698 3.20459 18.2878 2.76953 18.1237 2.41211C17.9626 2.05469 17.7209 1.78369 17.3987 1.59912C17.0764 1.41162 16.6765 1.31787 16.1989 1.31787H14.5422V0.452148H16.2605C16.9021 0.452148 17.4529 0.58252 17.9128 0.843262C18.3728 1.104 18.7258 1.479 18.9719 1.96826C19.218 2.45459 19.341 3.0376 19.341 3.71729C19.341 4.3999 19.2165 4.98584 18.9675 5.4751C18.7214 5.96436 18.364 6.34082 17.8952 6.60449C17.4265 6.86816 16.8596 7 16.1946 7ZM15.0608 0.452148V7H14.072V0.452148H15.0608ZM19.8292 7V0.452148H23.9381V1.30029H20.8179V3.27344H23.7183V4.11719H20.8179V6.15186H23.9688V7H19.8292ZM24.5141 7V0.452148H26.852C27.3588 0.452148 27.7792 0.540039 28.1132 0.71582C28.4472 0.888672 28.6977 1.13037 28.8647 1.44092C29.0317 1.74854 29.1152 2.10449 29.1152 2.50879C29.1152 2.90723 29.0317 3.25879 28.8647 3.56348C28.6977 3.86816 28.4457 4.104 28.1088 4.271C27.7748 4.43799 27.353 4.52148 26.8432 4.52148H25.081V3.67773H26.7509C27.0761 3.67773 27.3383 3.63086 27.5375 3.53711C27.7397 3.44336 27.8862 3.31006 27.977 3.13721C28.0707 2.96436 28.1176 2.75488 28.1176 2.50879C28.1176 2.25977 28.0707 2.0459 27.977 1.86719C27.8832 1.68555 27.7353 1.54639 27.5331 1.44971C27.3339 1.3501 27.0717 1.30029 26.7465 1.30029H25.5029V7H24.5141ZM28.2407 7L26.6542 4.04248H27.7485L29.3657 7H28.2407ZM34.8812 0.452148V7H33.9583L30.6404 2.20117H30.5745V7H29.5857V0.452148H30.4998L33.8309 5.25977H33.8924V0.452148H34.8812ZM0.527344 9.45215H1.73145L3.81445 14.541H3.88916L5.97656 9.45215H7.19824V16H6.23145V11.2627H6.16992L4.23193 15.9912H3.44971L1.53369 11.2583H1.47217V16H0.527344V9.45215ZM8.45104 16H7.40074L9.75621 9.45215H10.8988L13.2499 16H12.204L10.3495 10.6431H10.2967L8.45104 16ZM8.62682 13.438H12.0238V14.2642H8.62682V13.438ZM13.448 16V9.45215H15.7859C16.2927 9.45215 16.7131 9.54004 17.0471 9.71582C17.3811 9.88867 17.6316 10.1304 17.7986 10.4409C17.9655 10.7485 18.049 11.1045 18.049 11.5088C18.049 11.9072 17.9655 12.2588 17.7986 12.5635C17.6316 12.8682 17.3796 13.104 17.0427 13.271C16.7087 13.438 16.2868 13.5215 15.7771 13.5215H14.0149V12.6777H15.6848C16.01 12.6777 16.2722 12.6309 16.4714 12.5371C16.6736 12.4434 16.82 12.3101 16.9109 12.1372C17.0046 11.9644 17.0515 11.7549 17.0515 11.5088C17.0515 11.2598 17.0046 11.0459 16.9109 10.8672C16.8171 10.6855 16.6692 10.5464 16.467 10.4497C16.2678 10.3501 16.0056 10.3003 15.6804 10.3003H14.4367V16H13.448ZM17.1745 16L15.5881 13.0425H16.6823L18.2995 16H17.1745ZM18.5196 16V9.45215H19.5084V12.5811H19.5875L22.3385 9.45215H23.5733L20.9366 12.3965L23.5865 16H22.3956L20.2774 13.0776L19.5084 13.9697V16H18.5196ZM23.767 16V9.45215H27.8759V10.3003H24.7558V12.2734H27.6562V13.1172H24.7558V15.1519H27.9067V16H23.767ZM28.1268 10.3003V9.45215H33.198V10.3003H31.159V16H30.1746V10.3003H28.1268ZM34.5563 9.45215V16H33.5675V9.45215H34.5563ZM40.5508 9.45215V16H39.6279L36.3101 11.2012H36.2442V16H35.2554V9.45215H36.1695L39.5005 14.2598H39.562V9.45215H40.5508ZM44.0184 16.0879C43.4266 16.0879 42.9066 15.9517 42.4584 15.6792C42.0131 15.4067 41.6644 15.02 41.4125 14.519C41.1635 14.0151 41.0389 13.4189 41.0389 12.7305C41.0389 12.0332 41.1649 11.4341 41.4169 10.9331C41.6718 10.4292 42.0204 10.0425 42.4628 9.77295C42.9052 9.50049 43.4091 9.36426 43.9745 9.36426C44.3261 9.36426 44.6542 9.41699 44.9589 9.52246C45.2665 9.625 45.5389 9.77295 45.7762 9.96631C46.0165 10.1597 46.2142 10.3882 46.3695 10.6519C46.5277 10.9126 46.6346 11.2026 46.6903 11.522H45.6796C45.618 11.3257 45.536 11.1514 45.4335 10.999C45.3309 10.8438 45.2079 10.7119 45.0643 10.6035C44.9208 10.4922 44.7582 10.4087 44.5765 10.353C44.3978 10.2944 44.1986 10.2651 43.9789 10.2651C43.6097 10.2651 43.2772 10.3604 42.9813 10.5508C42.6854 10.7383 42.4511 11.0151 42.2782 11.3813C42.1054 11.7476 42.0189 12.1958 42.0189 12.7261C42.0189 13.2563 42.1054 13.7046 42.2782 14.0708C42.4511 14.437 42.6884 14.7153 42.9901 14.9058C43.2919 15.0933 43.6346 15.187 44.0184 15.187C44.3729 15.187 44.682 15.1152 44.9457 14.9717C45.2094 14.8252 45.4144 14.6201 45.5609 14.3564C45.7074 14.0928 45.7806 13.7808 45.7806 13.4204L46.0399 13.4688H44.1679V12.6514H46.743V13.3984C46.743 13.9492 46.6259 14.4253 46.3915 14.8267C46.16 15.228 45.8378 15.5386 45.4247 15.7583C45.0145 15.978 44.5458 16.0879 44.0184 16.0879ZM1.08545 25H0.0351562L2.39062 18.4521H3.5332L5.88428 25H4.83838L2.98389 19.6431H2.93115L1.08545 25ZM1.26123 22.438H4.6582V23.2642H1.26123V22.438ZM8.53453 25.0879C7.94273 25.0879 7.42271 24.9517 6.97447 24.6792C6.52916 24.4067 6.18053 24.02 5.92857 23.519C5.67955 23.0151 5.55504 22.4189 5.55504 21.7305C5.55504 21.0332 5.68102 20.4341 5.93297 19.9331C6.18785 19.4292 6.53648 19.0425 6.97887 18.7729C7.42125 18.5005 7.92516 18.3643 8.49059 18.3643C8.84215 18.3643 9.17027 18.417 9.47496 18.5225C9.78258 18.625 10.055 18.7729 10.2923 18.9663C10.5326 19.1597 10.7303 19.3882 10.8856 19.6519C11.0438 19.9126 11.1507 20.2026 11.2064 20.522H10.1957C10.1341 20.3257 10.0521 20.1514 9.94957 19.999C9.84703 19.8438 9.72398 19.7119 9.58043 19.6035C9.43687 19.4922 9.27428 19.4087 9.09264 19.353C8.91393 19.2944 8.71471 19.2651 8.49498 19.2651C8.12584 19.2651 7.79332 19.3604 7.49742 19.5508C7.20152 19.7383 6.96715 20.0151 6.7943 20.3813C6.62145 20.7476 6.53502 21.1958 6.53502 21.7261C6.53502 22.2563 6.62145 22.7046 6.7943 23.0708C6.96715 23.437 7.20445 23.7153 7.50621 23.9058C7.80797 24.0933 8.15074 24.187 8.53453 24.187C8.88902 24.187 9.19811 24.1152 9.46178 23.9717C9.72545 23.8252 9.93053 23.6201 10.077 23.3564C10.2235 23.0928 10.2967 22.7808 10.2967 22.4204L10.556 22.4688H8.68395V21.6514H11.2591V22.3984C11.2591 22.9492 11.142 23.4253 10.9076 23.8267C10.6761 24.228 10.3539 24.5386 9.94078 24.7583C9.53062 24.978 9.06187 25.0879 8.53453 25.0879ZM11.7693 25V18.4521H15.8781V19.3003H12.758V21.2734H15.6584V22.1172H12.758V24.1519H15.9089V25H11.7693ZM21.7496 18.4521V25H20.8267L17.5089 20.2012H17.4429V25H16.4542V18.4521H17.3682L20.6993 23.2598H20.7608V18.4521H21.7496ZM25.1821 25.0879C24.6196 25.0879 24.1157 24.9531 23.6704 24.6836C23.225 24.4141 22.8749 24.0288 22.6201 23.5278C22.3652 23.0239 22.2377 22.4248 22.2377 21.7305C22.2377 21.0303 22.3652 20.4297 22.6201 19.9287C22.8779 19.4248 23.228 19.0381 23.6704 18.7686C24.1157 18.499 24.6196 18.3643 25.1821 18.3643C25.5278 18.3643 25.8515 18.4141 26.1533 18.5137C26.4579 18.6133 26.7304 18.7583 26.9706 18.9487C27.2109 19.1392 27.4086 19.3721 27.5639 19.6475C27.7221 19.9229 27.8276 20.2349 27.8803 20.5835H26.8871C26.8491 20.3696 26.7773 20.1821 26.6718 20.021C26.5693 19.8569 26.4418 19.7192 26.2895 19.6079C26.1401 19.4937 25.9716 19.4087 25.7841 19.353C25.5996 19.2944 25.4033 19.2651 25.1953 19.2651C24.8203 19.2651 24.4819 19.3604 24.1801 19.5508C23.8813 19.7383 23.6454 20.0166 23.4726 20.3857C23.3027 20.752 23.2177 21.2002 23.2177 21.7305C23.2177 22.2637 23.3041 22.7134 23.477 23.0796C23.6498 23.4429 23.8857 23.7183 24.1845 23.9058C24.4833 24.0933 24.8188 24.187 25.1909 24.187C25.3989 24.187 25.5952 24.1592 25.7797 24.1035C25.9643 24.0479 26.1328 23.9644 26.2851 23.853C26.4374 23.7417 26.5649 23.6069 26.6674 23.4487C26.7729 23.2876 26.8461 23.1016 26.8871 22.8906H27.8803C27.8305 23.2158 27.7294 23.5132 27.5771 23.7827C27.4247 24.0493 27.2299 24.2808 26.9926 24.4771C26.7553 24.6704 26.4843 24.8213 26.1796 24.9297C25.8749 25.0352 25.5424 25.0879 25.1821 25.0879ZM27.8235 18.4521H28.9441L30.658 21.4316H30.7283L32.4334 18.4521H33.5628L31.1854 22.4292V25H30.1966V22.4292L27.8235 18.4521Z" fill="white"/>
</svg>
