<svg width="112" height="22" viewBox="0 0 112 22" fill="none" xmlns="http://www.w3.org/2000/svg">
<path d="M17.8235 0.287582V21.7124H13.9326L4.67759 8.23922H4.49163V21.7124H0V0.287582H3.94805L13.1459 13.7608H13.3318V0.287582H17.8235Z" fill="white"/>
<path d="M31.3401 22C29.4519 22 27.7544 21.5686 26.2477 20.7059C24.7409 19.8431 23.5489 18.5922 22.6716 16.9529C21.7942 15.3137 21.3555 13.3342 21.3555 11.0144C21.3555 8.67538 21.7942 6.68627 22.6716 5.04706C23.5489 3.39826 24.7409 2.14728 26.2477 1.29412C27.7544 0.431372 29.4519 0 31.3401 0C33.2283 0 34.9258 0.431372 36.4325 1.29412C37.9393 2.14728 39.1265 3.39826 39.9944 5.04706C40.8717 6.68627 41.3104 8.67538 41.3104 11.0144C41.3104 13.3438 40.8717 15.3281 39.9944 16.9673C39.1265 18.6065 37.9393 19.8575 36.4325 20.7203C34.9258 21.5734 33.2283 22 31.3401 22ZM31.3401 18.0026C32.4368 18.0026 33.3904 17.7342 34.201 17.1974C35.0116 16.6606 35.6362 15.8745 36.0749 14.8392C36.5231 13.7943 36.7472 12.5194 36.7472 11.0144C36.7472 9.49978 36.5231 8.22004 36.0749 7.17516C35.6362 6.13028 35.0116 5.33943 34.201 4.80261C33.3904 4.2658 32.4368 3.99739 31.3401 3.99739C30.253 3.99739 29.3041 4.2658 28.4935 4.80261C27.6829 5.33943 27.0487 6.13028 26.591 7.17516C26.1428 8.22004 25.9187 9.49978 25.9187 11.0144C25.9187 12.5194 26.1428 13.7943 26.591 14.8392C27.0487 15.8745 27.6829 16.6606 28.4935 17.1974C29.3041 17.7342 30.253 18.0026 31.3401 18.0026Z" fill="white"/>
<path d="M44.8568 0.287582H50.4212L56.2861 14.681H56.5293L62.4084 0.287582H67.9872V21.7124H63.5814V7.76471H63.4097L57.8739 21.6118H54.8985L49.4056 7.73595H49.2339V21.7124H44.8568V0.287582Z" fill="white"/>
<path d="M75.5818 21.7124H70.7611L78.1137 0.287582H83.9213L91.2596 21.7124H86.4532L81.1033 5.17647H80.9317L75.5818 21.7124ZM75.2957 13.2863H86.6964V16.8235H75.2957V13.2863Z" fill="white"/>
<path d="M101.586 21.7124H96.0361V17.8301H101.386C102.731 17.8301 103.856 17.5952 104.762 17.1255C105.677 16.6462 106.364 15.9033 106.822 14.8967C107.289 13.8806 107.523 12.5769 107.523 10.9856C107.523 9.40392 107.289 8.1098 106.822 7.10327C106.364 6.09673 105.677 5.35861 104.762 4.88889C103.856 4.40959 102.735 4.16993 101.4 4.16993H95.9503V0.287582H101.658C103.803 0.287582 105.649 0.718954 107.194 1.5817C108.739 2.43486 109.926 3.66187 110.756 5.26274C111.585 6.85403 112 8.76166 112 10.9856C112 13.2192 111.58 15.1364 110.741 16.7373C109.912 18.3381 108.719 19.5699 107.165 20.4327C105.611 21.2858 103.751 21.7124 101.586 21.7124ZM98.5251 0.287582V21.7124H94.0335V0.287582H98.5251Z" fill="white"/>
</svg>
