<svg width="120" height="120" viewBox="0 0 120 120" fill="none" xmlns="http://www.w3.org/2000/svg">
<rect width="120" height="120" rx="15" fill="white"/>
<path d="M79.2304 58.6786C83.302 59.8341 88 64.6213 88 71.802C88 82.862 80.7338 83.4397 77.038 83.1096C70.085 82.4493 69.1454 67.0148 67.2036 68.583C64.2595 70.9766 68.2685 73.7829 68.9575 77.332C69.7718 81.2112 65.4467 82.9624 65.4467 82.9624C65.4467 82.9624 63.9511 83.5491 61.4455 83.5491C58.9399 83.5491 58.6292 83.5491 56.9078 82.7703C53.9364 81.4258 52.7964 78.405 53.6107 75.0209C54.5503 70.8115 58.1208 66.6021 56.4922 64.5387C54.9262 62.3928 48.5996 83.1921 41.2081 85.3381C36.8233 86.5761 32 84.7603 32 76.8367C32 62.2277 54.4877 54.5517 53.2975 51.4979C52.1074 48.444 48.5369 55.7898 42.5235 55.7898C36.5101 55.7898 36.5727 45.9679 36.5727 45.9679C36.5727 38.7872 39.8926 34 48.5995 34C57.2438 34 57.6197 45.8028 61.4407 45.8028C65.2617 45.8028 70.085 36.8063 75.8479 36.8063C81.5481 36.8063 87.6868 40.768 87.6868 45.9679C87.6868 51.1677 84.5548 55.7898 80.5459 55.7898C76.5369 55.7898 68.7696 51.4979 68.7696 54.2216C68.7696 56.8628 74.0313 57.1104 79.2304 58.6786ZM68.2058 62.3928C71.7136 64.7863 79.8568 82.862 82.1745 71.802C83.6779 64.6213 70.085 59.3389 66.953 56.6977C64.8859 54.8819 64.6354 53.0661 64.8859 51.3328C65.2618 48.444 66.264 44.0695 73.3423 46.8758C80.3579 49.5995 83.5526 51.4153 83.5526 47.0409C83.5526 42.6664 72.528 41.4283 68.2058 43.7394C63.8837 45.9679 63.6331 47.7012 61.0022 47.2885C58.3087 46.8758 51.2931 40.0252 47.2841 40.6855C43.2125 41.3458 42.1477 43.1616 42.1477 45.9679C42.1477 48.7741 47.3468 46.133 51.1678 45.4727C54.9888 44.8124 56.4922 46.298 56.3042 51.0026C55.991 58.1834 35.0693 68.2529 39.7047 74.3606C44.34 80.3858 50.0403 57.7707 55.6152 58.6786C58.8725 59.2563 60 61.1547 59.4989 64.2086C59.0604 67.0148 53.7987 75.4336 56.2416 75.4336C58.6219 75.4336 58.8098 71.802 60.9396 71.802C63.0694 71.802 63.0694 78.7351 64.8859 76.3415C66.7025 73.948 62.8188 69.9036 62.8188 66.5196C62.8188 63.0531 64.6353 59.9992 68.2058 62.3928Z" fill="#D04944"/>
</svg>
