<svg width="590" height="509" viewBox="0 0 590 509" fill="none" xmlns="http://www.w3.org/2000/svg">
<g clip-path="url(#clip0_1_626)">
<rect y="-11.8965" width="589.021" height="532.828" fill="#F5F5F7"/>
<path d="M224.269 283.418H224.914V288.967H218.618V283.418H219.264V288.416H221.444V283.418H222.089V288.416H224.269V283.418ZM227.532 283.418C228.293 283.418 228.865 283.549 229.248 283.812C229.631 284.074 229.822 284.546 229.822 285.228C229.822 285.916 229.631 286.393 229.248 286.661C228.865 286.923 228.293 287.054 227.532 287.054H226.619V288.967H225.974V283.418H227.532ZM227.54 286.503C227.802 286.503 228.022 286.488 228.201 286.456C228.379 286.425 228.547 286.367 228.705 286.283C228.862 286.194 228.98 286.063 229.059 285.89C229.137 285.716 229.177 285.496 229.177 285.228C229.177 284.73 229.038 284.397 228.76 284.229C228.487 284.056 228.08 283.969 227.54 283.969H226.619V286.503H227.54ZM235.455 288.967H234.81V284.064L234.912 283.599H234.731L231.968 288.967H230.67V283.418H231.307V288.321L231.205 288.786H231.386L234.156 283.418H235.455V288.967ZM241.306 284.78C241.731 285.152 241.943 285.627 241.943 286.204C241.943 286.781 241.731 287.259 241.306 287.637C240.881 288.009 240.238 288.216 239.378 288.258V288.967H238.764V288.258C237.898 288.216 237.253 288.009 236.828 287.637C236.403 287.259 236.19 286.781 236.19 286.204C236.19 285.627 236.403 285.152 236.828 284.78C237.253 284.407 237.898 284.2 238.764 284.158V283.418H239.378V284.158C240.238 284.2 240.881 284.407 241.306 284.78ZM236.836 286.204C236.836 287.138 237.478 287.639 238.764 287.708V284.709C237.478 284.777 236.836 285.276 236.836 286.204ZM239.378 287.708C240.658 287.639 241.298 287.138 241.298 286.204C241.298 285.276 240.658 284.777 239.378 284.709V287.708ZM246.372 283.418V283.969H244.451V288.967H243.814V283.969H241.878V283.418H246.372ZM246.47 286.189C246.47 285.36 246.703 284.677 247.17 284.142C247.637 283.607 248.27 283.34 249.067 283.34C249.859 283.34 250.486 283.607 250.948 284.142C251.415 284.677 251.648 285.36 251.648 286.189C251.648 287.023 251.415 287.708 250.948 288.243C250.486 288.778 249.859 289.045 249.067 289.045C248.27 289.045 247.637 288.778 247.17 288.243C246.703 287.708 246.47 287.023 246.47 286.189ZM247.115 286.189C247.115 286.881 247.28 287.44 247.611 287.865C247.947 288.285 248.432 288.495 249.067 288.495C249.697 288.495 250.177 288.285 250.507 287.865C250.838 287.44 251.003 286.881 251.003 286.189C251.003 285.501 250.838 284.948 250.507 284.528C250.177 284.103 249.697 283.89 249.067 283.89C248.432 283.89 247.947 284.103 247.611 284.528C247.28 284.948 247.115 285.501 247.115 286.189ZM252.567 288.967V283.418H254.038C254.768 283.418 255.305 283.515 255.652 283.709C255.998 283.904 256.171 284.26 256.171 284.78C256.171 285.152 256.066 285.436 255.856 285.63C255.646 285.824 255.381 285.931 255.061 285.952V286.141C256.074 286.162 256.58 286.614 256.58 287.495C256.58 288.03 256.394 288.411 256.022 288.636C255.649 288.857 255.106 288.967 254.392 288.967H252.567ZM253.212 285.803H254.062C254.566 285.803 254.936 285.743 255.172 285.622C255.408 285.496 255.526 285.249 255.526 284.882C255.526 284.714 255.502 284.573 255.455 284.457C255.408 284.342 255.347 284.252 255.274 284.19C255.206 284.127 255.101 284.079 254.959 284.048C254.823 284.011 254.692 283.99 254.566 283.985C254.44 283.974 254.272 283.969 254.062 283.969H253.212V285.803ZM253.212 288.416H254.416C254.936 288.416 255.319 288.348 255.565 288.211C255.812 288.07 255.935 287.794 255.935 287.385C255.935 287.002 255.809 286.734 255.557 286.582C255.305 286.43 254.925 286.354 254.416 286.354H253.212V288.416ZM257.169 286.189C257.169 285.36 257.402 284.677 257.869 284.142C258.336 283.607 258.968 283.34 259.766 283.34C260.558 283.34 261.185 283.607 261.647 284.142C262.114 284.677 262.347 285.36 262.347 286.189C262.347 287.023 262.114 287.708 261.647 288.243C261.185 288.778 260.558 289.045 259.766 289.045C258.968 289.045 258.336 288.778 257.869 288.243C257.402 287.708 257.169 287.023 257.169 286.189ZM257.814 286.189C257.814 286.881 257.979 287.44 258.31 287.865C258.646 288.285 259.131 288.495 259.766 288.495C260.395 288.495 260.875 288.285 261.206 287.865C261.537 287.44 261.702 286.881 261.702 286.189C261.702 285.501 261.537 284.948 261.206 284.528C260.875 284.103 260.395 283.89 259.766 283.89C259.131 283.89 258.646 284.103 258.31 284.528C257.979 284.948 257.814 285.501 257.814 286.189ZM263.265 288.967V283.418H266.705V283.969H263.911V285.913H266.311V286.464H263.911V288.416H266.705V288.967H263.265ZM222.588 292.418H223.225V297.967H222.588V295.503H219.314V297.967H218.668V292.418H219.314V294.952H222.588V292.418ZM228.253 297.967L227.552 295.795H225.325L224.632 297.967H223.987L225.781 292.418H227.104L228.89 297.967H228.253ZM225.506 295.244H227.379L226.529 292.599H226.348L225.506 295.244ZM233.877 292.418V297.967H233.232V292.969H230.304V297.967H229.659V292.418H233.877ZM239.724 297.967H239.079V293.064L239.181 292.599H239L236.238 297.967H234.939V292.418H235.577V297.321L235.474 297.786H235.655L238.426 292.418H239.724V297.967ZM241.318 297.243C240.851 296.702 240.617 296.018 240.617 295.189C240.617 294.36 240.851 293.677 241.318 293.142C241.784 292.607 242.417 292.34 243.214 292.34C243.917 292.34 244.489 292.539 244.93 292.938C245.376 293.331 245.641 293.872 245.725 294.559H245.08C245.017 294.024 244.825 293.612 244.505 293.323C244.185 293.035 243.755 292.89 243.214 292.89C242.585 292.89 242.102 293.1 241.766 293.52C241.43 293.94 241.262 294.496 241.262 295.189C241.262 295.886 241.43 296.445 241.766 296.865C242.102 297.285 242.585 297.495 243.214 297.495C243.755 297.495 244.185 297.35 244.505 297.062C244.825 296.768 245.017 296.353 245.08 295.818H245.725C245.641 296.511 245.376 297.056 244.93 297.455C244.489 297.849 243.917 298.045 243.214 298.045C242.417 298.045 241.784 297.778 241.318 297.243ZM250.342 297.967L249.641 295.795H247.414L246.722 297.967H246.076L247.871 292.418H249.193L250.979 297.967H250.342ZM247.595 295.244H249.468L248.618 292.599H248.437L247.595 295.244ZM255.667 292.418H256.305V297.967H255.667V295.503H252.393V297.967H251.748V292.418H252.393V294.952H255.667V292.418ZM262.159 297.967H261.514V293.064L261.616 292.599H261.435L258.673 297.967H257.374V292.418H258.012V297.321L257.909 297.786H258.09L260.861 292.418H262.159V297.967ZM263.215 297.967V292.418H266.655V292.969H263.861V294.913H266.261V295.464H263.861V297.416H266.655V297.967H263.215Z" fill="#1A66FF"/>
<path d="M368.5 355.861C377.554 355.861 384.894 348.57 384.894 339.576C384.894 330.581 377.554 323.29 368.5 323.29C359.445 323.29 352.105 330.581 352.105 339.576C352.105 348.57 359.445 355.861 368.5 355.861Z" fill="#9F9F9F"/>
<path d="M368.5 350.327C364.044 350.327 359.905 347.481 358.473 343.212C358.473 343.054 358.473 342.895 358.632 342.737C358.791 342.737 358.95 342.737 359.109 342.895C360.542 346.848 364.362 349.536 368.5 349.536C372.639 349.536 376.459 346.848 377.891 342.895C377.891 342.737 378.209 342.579 378.369 342.737C378.528 342.737 378.687 343.054 378.528 343.212C377.095 347.481 373.116 350.327 368.5 350.327Z" fill="#ECECEC"/>
<path d="M362.929 337.678C364.071 337.678 364.998 336.758 364.998 335.623C364.998 334.488 364.071 333.567 362.929 333.567C361.786 333.567 360.859 334.488 360.859 335.623C360.859 336.758 361.786 337.678 362.929 337.678Z" fill="#ECECEC"/>
<path d="M374.229 337.678C375.372 337.678 376.299 336.758 376.299 335.623C376.299 334.488 375.372 333.567 374.229 333.567C373.087 333.567 372.16 334.488 372.16 335.623C372.16 336.758 373.087 337.678 374.229 337.678Z" fill="#ECECEC"/>
<path d="M339.214 329.14C350.833 313.645 367.068 332.777 351.947 343.054C331.096 358.391 347.331 358.391 326.48 343.054C311.519 332.777 327.595 313.645 339.214 329.14Z" fill="#9F9F9F"/>
<path d="M353.377 336.413C353.696 336.729 353.696 337.203 353.377 337.361C351.945 338.784 347.17 342.579 339.211 342.579C331.253 342.579 326.637 338.784 325.045 337.361C324.727 337.045 324.727 336.571 325.045 336.413C326.478 334.99 331.253 331.195 339.211 331.195C347.17 331.195 351.945 334.99 353.377 336.413Z" fill="#ECECEC"/>
<path d="M339.211 343.053C331.252 343.053 326.477 339.259 324.886 337.677C324.727 337.519 324.567 337.203 324.567 336.887C324.567 336.571 324.727 336.254 324.886 336.096C326.637 334.515 331.412 330.72 339.211 330.72C347.169 330.72 351.944 334.515 353.536 336.096C353.695 336.254 353.854 336.571 353.854 336.887C353.854 337.203 353.695 337.519 353.536 337.677C351.944 339.259 347.169 343.053 339.211 343.053ZM339.211 331.511C331.571 331.511 326.955 335.148 325.363 336.571C325.363 336.571 325.204 336.729 325.204 336.887C325.204 337.045 325.204 337.045 325.363 337.203C326.955 338.784 331.571 342.263 339.211 342.263C346.851 342.263 351.467 338.626 353.058 337.203C353.058 337.203 353.218 337.045 353.218 336.887C353.218 336.729 353.218 336.729 353.058 336.571C351.467 335.148 346.851 331.511 339.211 331.511Z" fill="#9F9F9F"/>
<path d="M339.213 340.366C341.059 340.366 342.555 338.88 342.555 337.046C342.555 335.212 341.059 333.726 339.213 333.726C337.367 333.726 335.87 335.212 335.87 337.046C335.87 338.88 337.367 340.366 339.213 340.366Z" fill="#9F9F9F"/>
<path d="M302.287 326.136H301.491V352.699H302.287V326.136Z" fill="#A6A8AB"/>
<path d="M207.581 326.136H219.359C221.27 326.136 223.02 326.452 224.453 327.243C225.885 328.034 227.159 329.14 227.955 330.405C228.75 331.828 229.228 333.409 229.228 335.149C229.228 336.255 229.069 337.362 228.591 338.311C228.273 339.26 227.636 340.208 227 340.999C226.363 341.789 225.408 342.422 224.453 342.896L229.865 352.383H221.588L217.449 344.003C217.29 344.003 216.972 344.003 216.813 344.003C216.654 344.003 216.335 344.003 216.176 344.003H215.062V352.383H207.74V326.136H207.581ZM219.041 338.153C219.519 338.153 219.996 337.995 220.474 337.837C220.951 337.678 221.27 337.204 221.588 336.888C221.906 336.414 221.906 335.939 221.906 335.465C221.906 334.991 221.747 334.674 221.588 334.2C221.27 333.726 220.951 333.409 220.474 333.251C219.996 332.935 219.519 332.935 219.041 332.935H214.903V338.469H219.041V338.153Z" fill="#9F9F9F"/>
<path d="M232.094 326.136H238.62L246.101 336.73L253.741 326.136H260.107V352.541H252.786V337.679L247.056 346.059H245.305L239.575 337.679V352.541H232.253V326.136H232.094Z" fill="#9F9F9F"/>
<path d="M264.403 326.136H271.725V346.058H282.071V352.541H264.403V326.136Z" fill="#9F9F9F"/>
<path d="M503.274 197.081C512.572 197.081 520.11 189.593 520.11 180.357C520.11 171.12 512.572 163.633 503.274 163.633C493.976 163.633 486.438 171.12 486.438 180.357C486.438 189.593 493.976 197.081 503.274 197.081Z" fill="#9F9F9F"/>
<path d="M503.275 191.398C498.698 191.398 494.449 188.475 492.978 184.091C492.978 183.929 492.977 183.767 493.141 183.604C493.304 183.604 493.468 183.604 493.631 183.767C495.102 187.826 499.025 190.586 503.275 190.586C507.525 190.586 511.448 187.826 512.919 183.767C512.919 183.604 513.246 183.442 513.409 183.604C513.573 183.604 513.736 183.929 513.573 184.091C512.102 188.475 507.852 191.398 503.275 191.398Z" fill="#ECECEC"/>
<path d="M497.391 178.408C498.564 178.408 499.515 177.463 499.515 176.297C499.515 175.132 498.564 174.187 497.391 174.187C496.217 174.187 495.266 175.132 495.266 176.297C495.266 177.463 496.217 178.408 497.391 178.408Z" fill="#ECECEC"/>
<path d="M509.157 178.408C510.331 178.408 511.282 177.463 511.282 176.297C511.282 175.132 510.331 174.187 509.157 174.187C507.984 174.187 507.032 175.132 507.032 176.297C507.032 177.463 507.984 178.408 509.157 178.408Z" fill="#ECECEC"/>
<path d="M473.199 169.641C485.131 153.728 501.803 173.375 486.275 183.929C464.862 199.679 481.535 199.679 460.122 183.929C444.594 173.375 461.266 153.728 473.199 169.641Z" fill="#9F9F9F"/>
<path d="M487.744 177.111C488.071 177.436 488.071 177.923 487.744 178.085C486.273 179.547 481.37 183.444 473.197 183.444C465.024 183.444 460.284 179.547 458.649 178.085C458.323 177.761 458.323 177.274 458.649 177.111C460.121 175.65 465.024 171.753 473.197 171.753C481.206 171.753 486.11 175.65 487.744 177.111Z" fill="#ECECEC"/>
<path d="M473.196 183.93C465.023 183.93 460.12 180.034 458.485 178.41C458.322 178.248 458.158 177.923 458.158 177.598C458.158 177.273 458.322 176.949 458.485 176.786C460.283 175.163 465.187 171.266 473.196 171.266C481.205 171.266 486.272 175.163 487.907 176.786C488.07 176.949 488.234 177.273 488.234 177.598C488.234 177.923 488.07 178.248 487.907 178.41C486.109 180.034 481.205 183.93 473.196 183.93ZM473.196 172.077C465.35 172.077 460.61 175.812 458.975 177.273C458.975 177.273 458.812 177.436 458.812 177.598C458.812 177.76 458.812 177.76 458.975 177.923C460.61 179.546 465.35 183.119 473.196 183.119C481.042 183.119 485.782 179.384 487.417 177.923C487.417 177.923 487.58 177.76 487.58 177.598C487.58 177.436 487.58 177.436 487.417 177.273C485.782 175.812 481.042 172.077 473.196 172.077Z" fill="#9F9F9F"/>
<path d="M473.197 181.169C475.093 181.169 476.63 179.643 476.63 177.759C476.63 175.876 475.093 174.35 473.197 174.35C471.301 174.35 469.765 175.876 469.765 177.759C469.765 179.643 471.301 181.169 473.197 181.169Z" fill="#9F9F9F"/>
<path d="M435.277 166.556H434.46V193.834H435.277V166.556Z" fill="#A6A8AB"/>
<path d="M73.3906 166.556H85.6497C87.6112 166.556 89.4092 166.88 90.8803 167.692C92.3513 168.504 93.659 169.641 94.4763 170.94C95.2935 172.401 95.7839 174.025 95.7839 175.811C95.7839 176.947 95.6204 178.084 95.1301 179.058C94.8032 180.032 94.1493 181.007 93.4955 181.818C92.8417 182.63 91.861 183.28 90.8803 183.767L96.4377 193.509H87.7746L83.5248 184.903C83.3614 184.903 83.0344 184.903 82.871 184.903C82.7075 184.903 82.3806 184.903 82.2172 184.903H81.073V193.509H73.5541V166.556H73.3906ZM85.3228 178.896C85.8132 178.896 86.3035 178.733 86.7939 178.571C87.2843 178.409 87.6112 177.922 87.9381 177.597C88.265 177.11 88.265 176.623 88.265 176.135C88.265 175.648 88.1015 175.324 87.9381 174.837C87.6112 174.349 87.2843 174.025 86.7939 173.862C86.3035 173.7 85.8132 173.538 85.3228 173.538H81.073V179.221H85.3228V178.896Z" fill="#9F9F9F"/>
<path d="M107.39 166.556H114.418L125.533 193.834H117.524L111.149 177.434L110.986 176.46L110.822 177.434L104.448 193.834H96.4385L107.39 166.556ZM107.88 183.767H114.092L116.543 189.937H105.592L107.88 183.767Z" fill="#9F9F9F"/>
<path d="M127.658 166.556H139.263C142.206 166.556 144.821 167.043 146.946 168.179C149.234 169.316 150.869 170.94 152.176 172.888C153.484 174.999 153.974 177.272 153.974 180.032C153.974 182.793 153.321 185.066 152.176 187.177C151.032 189.287 149.234 190.911 146.946 191.885C144.657 193.022 142.206 193.509 139.263 193.509H127.658V166.556ZM138.937 187.014C140.571 187.014 141.879 186.69 142.859 186.202C144.004 185.715 144.821 184.903 145.311 183.929C145.802 182.955 146.129 181.656 146.129 180.195C146.129 178.733 145.802 177.597 145.311 176.46C144.821 175.486 144.004 174.674 142.859 174.025C141.715 173.375 140.408 173.213 138.773 173.213H134.85V187.014H138.937Z" fill="#9F9F9F"/>
<path d="M156.752 166.556H164.271V193.671H156.752V166.556Z" fill="#9F9F9F"/>
<path d="M178.001 166.556H184.703L192.385 177.434L200.231 166.556H206.769V193.671H199.25V178.409L193.202 187.014H191.404L185.52 178.409V193.671H178.001V166.556Z" fill="#9F9F9F"/>
<path d="M211.347 166.556H218.866V193.671H211.347V166.556Z" fill="#9F9F9F"/>
<path d="M223.278 166.556H235.374C237.335 166.556 239.133 166.88 240.605 167.692C242.076 168.504 243.383 169.641 244.201 170.94C245.018 172.401 245.508 174.025 245.508 175.811C245.508 176.947 245.345 178.084 244.854 179.058C244.527 180.032 243.874 181.007 243.22 181.818C242.566 182.63 241.585 183.28 240.605 183.767L246.162 193.509H237.662L233.413 184.903C233.249 184.903 232.922 184.903 232.759 184.903C232.595 184.903 232.268 184.903 232.105 184.903H230.961V193.509H223.442V166.556H223.278ZM235.211 178.896C235.701 178.896 236.191 178.733 236.682 178.571C237.172 178.409 237.499 177.922 237.826 177.597C238.153 177.11 238.153 176.623 238.153 176.135C238.153 175.648 237.989 175.324 237.826 174.837C237.499 174.349 237.172 174.025 236.682 173.862C236.191 173.538 235.701 173.538 235.211 173.538H230.961V179.221H235.211V178.896Z" fill="#9F9F9F"/>
<path d="M257.277 166.556H264.305L275.42 193.834H267.411L261.036 177.434L260.873 176.46L260.709 177.434L254.334 193.834H246.325L257.277 166.556ZM257.604 183.767H263.815L266.267 189.937H255.315L257.604 183.767Z" fill="#9F9F9F"/>
<path d="M284.573 166.556H292.092V193.671H284.573V166.556Z" fill="#9F9F9F"/>
<path d="M303.698 166.556H311.217V187.014H321.841V193.671H303.534V166.556H303.698Z" fill="#9F9F9F"/>
<path d="M336.716 194.321C334.427 194.321 332.302 193.834 330.341 193.022C328.543 192.048 326.908 190.749 325.928 189.125C324.783 187.501 324.293 185.553 324.293 183.28V166.556H331.812V182.63C331.812 183.605 331.975 184.416 332.302 185.228C332.629 186.04 333.283 186.527 333.937 187.014C334.591 187.501 335.571 187.664 336.552 187.664C337.533 187.664 338.35 187.501 339.167 187.014C339.821 186.527 340.475 186.04 340.802 185.228C341.129 184.416 341.292 183.605 341.292 182.63V166.556H348.811V183.28C348.811 185.391 348.321 187.339 347.34 188.963C346.359 190.586 344.888 192.048 343.09 192.86C341.292 193.834 339.167 194.321 336.716 194.321Z" fill="#9F9F9F"/>
<path d="M353.062 166.556H365.484C367.446 166.556 369.08 166.88 370.388 167.368C371.695 167.855 372.84 168.829 373.657 169.965C374.474 171.102 374.801 172.563 374.801 174.187C374.801 174.837 374.638 175.648 374.311 176.298C373.984 176.947 373.657 177.597 373.166 178.084C372.676 178.571 372.186 178.896 371.695 179.221C372.513 179.545 373.33 180.032 373.984 180.682C374.638 181.331 375.291 181.981 375.618 182.793C376.109 183.605 376.272 184.416 376.272 185.391C376.272 187.339 375.782 188.963 374.964 190.099C373.984 191.398 372.84 192.21 371.368 192.697C369.897 193.184 368.426 193.509 366.628 193.509H353.062V166.556ZM364.994 177.11C365.321 177.11 365.811 176.947 366.138 176.785C366.465 176.623 366.628 176.298 366.792 175.973C366.955 175.648 367.119 175.324 367.119 174.837C367.119 174.512 366.955 174.025 366.792 173.7C366.628 173.375 366.465 173.213 366.138 173.05C365.811 172.888 365.484 172.726 365.157 172.726H360.744V177.11H364.994ZM365.811 187.339C366.301 187.339 366.792 187.177 367.119 187.014C367.446 186.852 367.772 186.527 367.936 186.202C368.099 185.878 368.263 185.391 368.263 184.903C368.263 184.416 368.099 184.092 367.936 183.767C367.772 183.442 367.446 183.117 366.955 182.955C366.628 182.793 366.138 182.63 365.648 182.63H360.417V187.339H365.811Z" fill="#9F9F9F"/>
<path d="M375.782 166.556H383.791L390.33 183.767H390.493L397.031 166.556H405.041L393.762 193.834H387.061L375.782 166.556Z" fill="#9F9F9F"/>
<path d="M407.165 166.556H414.684V193.671H407.165V166.556Z" fill="#9F9F9F"/>
<path d="M418.345 144.017L68.8993 144.017L68.3809 144.017V163.718H68.8993L68.8993 144.535L417.826 144.535V163.718H418.345V144.017Z" fill="#1A66FF"/>
<path d="M519.964 219.195L69.0499 219.195L68.3809 219.195V199.494H69.0499L69.0499 218.677L519.295 218.677V199.494H519.964V219.195Z" fill="#1A66FF"/>
<path d="M225.306 118.546H225.952V124.095H219.655V118.546H220.301V123.544H222.481V118.546H223.126V123.544H225.306V118.546ZM228.569 118.546C229.33 118.546 229.902 118.677 230.285 118.94C230.668 119.202 230.859 119.674 230.859 120.356C230.859 121.044 230.668 121.521 230.285 121.789C229.902 122.051 229.33 122.182 228.569 122.182H227.656V124.095H227.011V118.546H228.569ZM228.577 121.631C228.839 121.631 229.06 121.616 229.238 121.584C229.416 121.553 229.584 121.495 229.742 121.411C229.899 121.322 230.017 121.191 230.096 121.017C230.175 120.844 230.214 120.624 230.214 120.356C230.214 119.858 230.075 119.525 229.797 119.357C229.524 119.184 229.117 119.097 228.577 119.097H227.656V121.631H228.577ZM236.492 124.095H235.847V119.192L235.949 118.727H235.768L233.005 124.095H231.707V118.546H232.344V123.449L232.242 123.914H232.423L235.193 118.546H236.492V124.095ZM242.343 119.908C242.768 120.28 242.98 120.755 242.98 121.332C242.98 121.909 242.768 122.387 242.343 122.765C241.918 123.137 241.275 123.344 240.415 123.386V124.095H239.801V123.386C238.935 123.344 238.29 123.137 237.865 122.765C237.44 122.387 237.227 121.909 237.227 121.332C237.227 120.755 237.44 120.28 237.865 119.908C238.29 119.535 238.935 119.328 239.801 119.286V118.546H240.415V119.286C241.275 119.328 241.918 119.535 242.343 119.908ZM237.873 121.332C237.873 122.266 238.515 122.767 239.801 122.835V119.837C238.515 119.905 237.873 120.404 237.873 121.332ZM240.415 122.835C241.695 122.767 242.335 122.266 242.335 121.332C242.335 120.404 241.695 119.905 240.415 119.837V122.835ZM247.409 118.546V119.097H245.488V124.095H244.851V119.097H242.915V118.546H247.409ZM247.507 121.317C247.507 120.488 247.74 119.805 248.207 119.27C248.674 118.735 249.307 118.467 250.104 118.467C250.896 118.467 251.523 118.735 251.985 119.27C252.452 119.805 252.686 120.488 252.686 121.317C252.686 122.151 252.452 122.835 251.985 123.371C251.523 123.906 250.896 124.173 250.104 124.173C249.307 124.173 248.674 123.906 248.207 123.371C247.74 122.835 247.507 122.151 247.507 121.317ZM248.152 121.317C248.152 122.009 248.318 122.568 248.648 122.993C248.984 123.413 249.469 123.623 250.104 123.623C250.734 123.623 251.214 123.413 251.544 122.993C251.875 122.568 252.04 122.009 252.04 121.317C252.04 120.629 251.875 120.076 251.544 119.656C251.214 119.231 250.734 119.018 250.104 119.018C249.469 119.018 248.984 119.231 248.648 119.656C248.318 120.076 248.152 120.629 248.152 121.317ZM253.604 124.095V118.546H255.075C255.805 118.546 256.343 118.643 256.689 118.837C257.035 119.031 257.208 119.388 257.208 119.908C257.208 120.28 257.103 120.564 256.893 120.758C256.684 120.952 256.419 121.059 256.099 121.08V121.269C257.111 121.29 257.618 121.742 257.618 122.623C257.618 123.158 257.431 123.539 257.059 123.764C256.686 123.985 256.143 124.095 255.43 124.095H253.604ZM254.249 120.931H255.099C255.603 120.931 255.973 120.871 256.209 120.75C256.445 120.624 256.563 120.377 256.563 120.01C256.563 119.842 256.539 119.7 256.492 119.585C256.445 119.47 256.385 119.38 256.311 119.317C256.243 119.254 256.138 119.207 255.996 119.176C255.86 119.139 255.729 119.118 255.603 119.113C255.477 119.102 255.309 119.097 255.099 119.097H254.249V120.931ZM254.249 123.544H255.453C255.973 123.544 256.356 123.476 256.602 123.339C256.849 123.198 256.972 122.922 256.972 122.513C256.972 122.13 256.846 121.862 256.594 121.71C256.343 121.558 255.962 121.482 255.453 121.482H254.249V123.544ZM258.206 121.317C258.206 120.488 258.439 119.805 258.906 119.27C259.373 118.735 260.005 118.467 260.803 118.467C261.595 118.467 262.222 118.735 262.684 119.27C263.151 119.805 263.384 120.488 263.384 121.317C263.384 122.151 263.151 122.835 262.684 123.371C262.222 123.906 261.595 124.173 260.803 124.173C260.005 124.173 259.373 123.906 258.906 123.371C258.439 122.835 258.206 122.151 258.206 121.317ZM258.851 121.317C258.851 122.009 259.016 122.568 259.347 122.993C259.683 123.413 260.168 123.623 260.803 123.623C261.432 123.623 261.913 123.413 262.243 122.993C262.574 122.568 262.739 122.009 262.739 121.317C262.739 120.629 262.574 120.076 262.243 119.656C261.913 119.231 261.432 119.018 260.803 119.018C260.168 119.018 259.683 119.231 259.347 119.656C259.016 120.076 258.851 120.629 258.851 121.317ZM264.302 124.095V118.546H267.742V119.097H264.948V121.041H267.348V121.592H264.948V123.544H267.742V124.095H264.302ZM223.625 127.546H224.262V133.095H223.625V130.631H220.351V133.095H219.705V127.546H220.351V130.08H223.625V127.546ZM229.29 133.095L228.589 130.923H226.362L225.67 133.095H225.024L226.819 127.546H228.141L229.927 133.095H229.29ZM226.543 130.372H228.416L227.566 127.727H227.385L226.543 130.372ZM234.914 127.546V133.095H234.269V128.097H231.341V133.095H230.696V127.546H234.914ZM240.762 133.095H240.116V128.192L240.218 127.727H240.037L237.275 133.095H235.976V127.546H236.614V132.449L236.512 132.914H236.693L239.463 127.546H240.762V133.095ZM242.355 132.371C241.888 131.83 241.654 131.146 241.654 130.317C241.654 129.488 241.888 128.805 242.355 128.27C242.822 127.735 243.454 127.467 244.251 127.467C244.954 127.467 245.526 127.667 245.967 128.066C246.413 128.459 246.678 129 246.762 129.687H246.117C246.054 129.152 245.862 128.74 245.542 128.451C245.222 128.163 244.792 128.018 244.251 128.018C243.622 128.018 243.139 128.228 242.803 128.648C242.467 129.068 242.3 129.624 242.3 130.317C242.3 131.014 242.467 131.573 242.803 131.993C243.139 132.413 243.622 132.623 244.251 132.623C244.792 132.623 245.222 132.478 245.542 132.19C245.862 131.896 246.054 131.481 246.117 130.946H246.762C246.678 131.639 246.413 132.184 245.967 132.583C245.526 132.977 244.954 133.173 244.251 133.173C243.454 133.173 242.822 132.906 242.355 132.371ZM251.379 133.095L250.679 130.923H248.451L247.759 133.095H247.113L248.908 127.546H250.23L252.016 133.095H251.379ZM248.632 130.372H250.505L249.655 127.727H249.474L248.632 130.372ZM256.705 127.546H257.342V133.095H256.705V130.631H253.43V133.095H252.785V127.546H253.43V130.08H256.705V127.546ZM263.196 133.095H262.551V128.192L262.653 127.727H262.472L259.71 133.095H258.411V127.546H259.049V132.449L258.947 132.914H259.128L261.898 127.546H263.196V133.095ZM264.252 133.095V127.546H267.692V128.097H264.898V130.041H267.298V130.592H264.898V132.544H267.692V133.095H264.252Z" fill="#1A66FF"/>
<path d="M281.06 227.943V233.491H280.415V228.494H278.321C278.321 228.94 278.316 229.315 278.306 229.619C278.3 229.923 278.282 230.267 278.251 230.65C278.224 231.028 278.185 231.343 278.132 231.594C278.085 231.846 278.014 232.103 277.92 232.366C277.831 232.623 277.721 232.827 277.589 232.98C277.464 233.127 277.303 233.25 277.109 233.35C276.92 233.444 276.705 233.491 276.464 233.491V232.94C276.658 232.94 276.826 232.888 276.968 232.783C277.115 232.673 277.23 232.489 277.314 232.232C277.403 231.97 277.474 231.723 277.526 231.492C277.579 231.261 277.613 230.918 277.629 230.461C277.65 230.005 277.663 229.637 277.668 229.359C277.673 229.076 277.676 228.651 277.676 228.084C277.676 228.021 277.676 227.974 277.676 227.943H281.06ZM281.957 230.713C281.957 229.884 282.191 229.202 282.658 228.667C283.125 228.132 283.757 227.864 284.554 227.864C285.347 227.864 285.974 228.132 286.435 228.667C286.902 229.202 287.136 229.884 287.136 230.713C287.136 231.547 286.902 232.232 286.435 232.767C285.974 233.302 285.347 233.57 284.554 233.57C283.757 233.57 283.125 233.302 282.658 232.767C282.191 232.232 281.957 231.547 281.957 230.713ZM282.603 230.713C282.603 231.406 282.768 231.964 283.098 232.389C283.434 232.809 283.92 233.019 284.554 233.019C285.184 233.019 285.664 232.809 285.995 232.389C286.325 231.964 286.49 231.406 286.49 230.713C286.49 230.026 286.325 229.472 285.995 229.052C285.664 228.627 285.184 228.415 284.554 228.415C283.92 228.415 283.434 228.627 283.098 229.052C282.768 229.472 282.603 230.026 282.603 230.713ZM288.054 233.491V227.943H291.399V228.494H288.699V233.491H288.054ZM291.488 230.713C291.488 229.884 291.721 229.202 292.188 228.667C292.655 228.132 293.287 227.864 294.085 227.864C294.877 227.864 295.504 228.132 295.966 228.667C296.433 229.202 296.666 229.884 296.666 230.713C296.666 231.547 296.433 232.232 295.966 232.767C295.504 233.302 294.877 233.57 294.085 233.57C293.287 233.57 292.655 233.302 292.188 232.767C291.721 232.232 291.488 231.547 291.488 230.713ZM292.133 230.713C292.133 231.406 292.298 231.964 292.629 232.389C292.965 232.809 293.45 233.019 294.085 233.019C294.714 233.019 295.195 232.809 295.525 232.389C295.856 231.964 296.021 231.406 296.021 230.713C296.021 230.026 295.856 229.472 295.525 229.052C295.195 228.627 294.714 228.415 294.085 228.415C293.45 228.415 292.965 228.627 292.629 229.052C292.298 229.472 292.133 230.026 292.133 230.713ZM301.25 227.943V228.494H299.33V233.491H298.693V228.494H296.756V227.943H301.25ZM306.812 233.491H306.167V228.588L306.269 228.124H306.088L303.326 233.491H302.027V227.943H302.664V232.846L302.562 233.31H302.743L305.514 227.943H306.812V233.491ZM312.087 227.943V233.491H311.441V228.494H308.513V233.491H307.868V227.943H312.087Z" fill="#1A66FF"/>
<path d="M281.06 383.482V389.03H280.415V384.033H278.321C278.321 384.479 278.316 384.854 278.306 385.158C278.3 385.462 278.282 385.806 278.251 386.189C278.224 386.567 278.185 386.882 278.132 387.134C278.085 387.385 278.014 387.642 277.92 387.905C277.831 388.162 277.721 388.367 277.589 388.519C277.464 388.666 277.303 388.789 277.109 388.889C276.92 388.983 276.705 389.03 276.464 389.03V388.479C276.658 388.479 276.826 388.427 276.968 388.322C277.115 388.212 277.23 388.028 277.314 387.771C277.403 387.509 277.474 387.262 277.526 387.031C277.579 386.8 277.613 386.457 277.629 386C277.65 385.544 277.663 385.176 277.668 384.898C277.673 384.615 277.676 384.19 277.676 383.623C277.676 383.56 277.676 383.513 277.676 383.482H281.06ZM281.957 386.252C281.957 385.423 282.191 384.741 282.658 384.206C283.125 383.671 283.757 383.403 284.554 383.403C285.347 383.403 285.974 383.671 286.435 384.206C286.902 384.741 287.136 385.423 287.136 386.252C287.136 387.086 286.902 387.771 286.435 388.306C285.974 388.841 285.347 389.109 284.554 389.109C283.757 389.109 283.125 388.841 282.658 388.306C282.191 387.771 281.957 387.086 281.957 386.252ZM282.603 386.252C282.603 386.945 282.768 387.503 283.098 387.928C283.434 388.348 283.92 388.558 284.554 388.558C285.184 388.558 285.664 388.348 285.995 387.928C286.325 387.503 286.49 386.945 286.49 386.252C286.49 385.565 286.325 385.011 285.995 384.591C285.664 384.166 285.184 383.954 284.554 383.954C283.92 383.954 283.434 384.166 283.098 384.591C282.768 385.011 282.603 385.565 282.603 386.252ZM288.054 389.03V383.482H291.399V384.033H288.699V389.03H288.054ZM291.488 386.252C291.488 385.423 291.721 384.741 292.188 384.206C292.655 383.671 293.287 383.403 294.085 383.403C294.877 383.403 295.504 383.671 295.966 384.206C296.433 384.741 296.666 385.423 296.666 386.252C296.666 387.086 296.433 387.771 295.966 388.306C295.504 388.841 294.877 389.109 294.085 389.109C293.287 389.109 292.655 388.841 292.188 388.306C291.721 387.771 291.488 387.086 291.488 386.252ZM292.133 386.252C292.133 386.945 292.298 387.503 292.629 387.928C292.965 388.348 293.45 388.558 294.085 388.558C294.714 388.558 295.195 388.348 295.525 387.928C295.856 387.503 296.021 386.945 296.021 386.252C296.021 385.565 295.856 385.011 295.525 384.591C295.195 384.166 294.714 383.954 294.085 383.954C293.45 383.954 292.965 384.166 292.629 384.591C292.298 385.011 292.133 385.565 292.133 386.252ZM301.25 383.482V384.033H299.33V389.03H298.693V384.033H296.756V383.482H301.25ZM306.812 389.03H306.167V384.127L306.269 383.663H306.088L303.326 389.03H302.027V383.482H302.664V388.385L302.562 388.849H302.743L305.514 383.482H306.812V389.03ZM312.087 383.482V389.03H311.441V384.033H308.513V389.03H307.868V383.482H312.087Z" fill="#1A66FF"/>
<path d="M464.046 119.908C464.471 120.28 464.683 120.755 464.683 121.332C464.683 121.909 464.471 122.387 464.046 122.765C463.621 123.137 462.978 123.344 462.117 123.386V124.095H461.504V123.386C460.638 123.344 459.993 123.137 459.568 122.765C459.143 122.387 458.93 121.909 458.93 121.332C458.93 120.755 459.143 120.28 459.568 119.908C459.993 119.535 460.638 119.328 461.504 119.286V118.546H462.117V119.286C462.978 119.328 463.621 119.535 464.046 119.908ZM459.575 121.332C459.575 122.266 460.218 122.767 461.504 122.835V119.837C460.218 119.905 459.575 120.404 459.575 121.332ZM462.117 122.835C463.398 122.767 464.038 122.266 464.038 121.332C464.038 120.404 463.398 119.905 462.117 119.837V122.835ZM470.238 124.095H469.593V119.192L469.695 118.727H469.514L466.752 124.095H465.453V118.546H466.091V123.449L465.989 123.914H466.17L468.94 118.546H470.238V124.095ZM472.853 118.546C473.613 118.546 474.185 118.677 474.568 118.94C474.951 119.202 475.143 119.674 475.143 120.356C475.143 121.044 474.951 121.521 474.568 121.789C474.185 122.051 473.613 122.182 472.853 122.182H471.94V124.095H471.294V118.546H472.853ZM472.861 121.631C473.123 121.631 473.343 121.616 473.522 121.584C473.7 121.553 473.868 121.495 474.025 121.411C474.183 121.322 474.301 121.191 474.38 121.017C474.458 120.844 474.498 120.624 474.498 120.356C474.498 119.858 474.359 119.525 474.08 119.357C473.808 119.184 473.401 119.097 472.861 119.097H471.94V121.631H472.861ZM475.983 124.095V118.546H477.281L478.855 123.914H479.036L480.618 118.546H481.909V124.095H481.264V119.192L481.374 118.727H481.185L479.595 124.095H478.297L476.707 118.727H476.526L476.628 119.192V124.095H475.983ZM482.969 124.095V118.546H486.408V119.097H483.615V121.041H486.015V121.592H483.615V123.544H486.408V124.095H482.969ZM491.246 118.546H491.884V124.095H491.246V121.631H487.972V124.095H487.327V118.546H487.972V121.08H491.246V118.546ZM496.865 118.546H497.502V124.095H496.865V121.631H493.591V124.095H492.945V118.546H493.591V121.08H496.865V118.546ZM499.209 118.546V120.616H500.248C500.962 120.616 501.499 120.745 501.861 121.002C502.229 121.259 502.412 121.713 502.412 122.363C502.412 123.009 502.229 123.46 501.861 123.717C501.499 123.969 500.962 124.095 500.248 124.095H498.564V118.546H499.209ZM503.184 118.546H503.829V124.095H503.184V118.546ZM499.209 123.544H500.248C500.783 123.544 501.169 123.465 501.405 123.308C501.646 123.15 501.767 122.835 501.767 122.363C501.767 121.886 501.646 121.568 501.405 121.411C501.169 121.248 500.783 121.167 500.248 121.167H499.209V123.544ZM504.889 124.095V118.546H508.329V119.097H505.535V121.041H507.935V121.592H505.535V123.544H508.329V124.095H504.889ZM464.445 132.371C463.979 131.83 463.745 131.146 463.745 130.317C463.745 129.488 463.979 128.805 464.445 128.27C464.912 127.735 465.545 127.467 466.342 127.467C467.045 127.467 467.617 127.667 468.058 128.066C468.504 128.459 468.769 129 468.853 129.687H468.208C468.145 129.152 467.953 128.74 467.633 128.451C467.313 128.163 466.883 128.018 466.342 128.018C465.713 128.018 465.23 128.228 464.894 128.648C464.558 129.068 464.39 129.624 464.39 130.317C464.39 131.014 464.558 131.573 464.894 131.993C465.23 132.413 465.713 132.623 466.342 132.623C466.883 132.623 467.313 132.478 467.633 132.19C467.953 131.896 468.145 131.481 468.208 130.946H468.853C468.769 131.639 468.504 132.184 468.058 132.583C467.617 132.977 467.045 133.173 466.342 133.173C465.545 133.173 464.912 132.906 464.445 132.371ZM474.566 133.095H473.92V128.192L474.023 127.727H473.842L471.079 133.095H469.78V127.546H470.418V132.449L470.316 132.914H470.497L473.267 127.546H474.566V133.095ZM475.622 133.095V127.546H476.92L478.494 132.914H478.675L480.257 127.546H481.548V133.095H480.902V128.192L481.013 127.727H480.824L479.234 133.095H477.935L476.346 127.727H476.165L476.267 128.192V133.095H475.622ZM482.608 133.095V127.546H484.08C484.809 127.546 485.347 127.643 485.693 127.837C486.039 128.031 486.213 128.388 486.213 128.908C486.213 129.28 486.108 129.564 485.898 129.758C485.688 129.952 485.423 130.059 485.103 130.08V130.269C486.115 130.29 486.622 130.742 486.622 131.623C486.622 132.158 486.436 132.539 486.063 132.764C485.69 132.985 485.147 133.095 484.434 133.095H482.608ZM483.253 129.931H484.103C484.607 129.931 484.977 129.871 485.213 129.75C485.449 129.624 485.567 129.377 485.567 129.01C485.567 128.842 485.544 128.7 485.496 128.585C485.449 128.47 485.389 128.38 485.315 128.317C485.247 128.254 485.142 128.207 485.001 128.176C484.864 128.139 484.733 128.118 484.607 128.113C484.481 128.102 484.313 128.097 484.103 128.097H483.253V129.931ZM483.253 132.544H484.457C484.977 132.544 485.36 132.476 485.607 132.339C485.853 132.198 485.976 131.922 485.976 131.513C485.976 131.13 485.851 130.862 485.599 130.71C485.347 130.558 484.966 130.482 484.457 130.482H483.253V132.544ZM487.21 130.317C487.21 129.488 487.443 128.805 487.91 128.27C488.377 127.735 489.01 127.467 489.807 127.467C490.599 127.467 491.226 127.735 491.688 128.27C492.155 128.805 492.389 129.488 492.389 130.317C492.389 131.151 492.155 131.835 491.688 132.371C491.226 132.906 490.599 133.173 489.807 133.173C489.01 133.173 488.377 132.906 487.91 132.371C487.443 131.835 487.21 131.151 487.21 130.317ZM487.855 130.317C487.855 131.009 488.021 131.568 488.351 131.993C488.687 132.413 489.172 132.623 489.807 132.623C490.437 132.623 490.917 132.413 491.247 131.993C491.578 131.568 491.743 131.009 491.743 130.317C491.743 129.629 491.578 129.076 491.247 128.656C490.917 128.231 490.437 128.018 489.807 128.018C489.172 128.018 488.687 128.231 488.351 128.656C488.021 129.076 487.855 129.629 487.855 130.317ZM497.188 127.546V133.095H496.543V128.097H494.45C494.45 128.543 494.444 128.918 494.434 129.223C494.429 129.527 494.41 129.871 494.379 130.254C494.352 130.631 494.313 130.946 494.261 131.198C494.213 131.45 494.143 131.707 494.048 131.969C493.959 132.226 493.849 132.431 493.718 132.583C493.592 132.73 493.432 132.853 493.238 132.953C493.049 133.048 492.834 133.095 492.592 133.095V132.544C492.786 132.544 492.954 132.491 493.096 132.386C493.243 132.276 493.358 132.093 493.442 131.835C493.531 131.573 493.602 131.327 493.655 131.096C493.707 130.865 493.741 130.521 493.757 130.065C493.778 129.608 493.791 129.241 493.796 128.963C493.802 128.679 493.804 128.254 493.804 127.688C493.804 127.625 493.804 127.578 493.804 127.546H497.188ZM498.894 127.546V129.616H499.933C500.646 129.616 501.184 129.745 501.546 130.002C501.914 130.259 502.097 130.713 502.097 131.363C502.097 132.009 501.914 132.46 501.546 132.717C501.184 132.969 500.646 133.095 499.933 133.095H498.249V127.546H498.894ZM502.868 127.546H503.514V133.095H502.868V127.546ZM498.894 132.544H499.933C500.468 132.544 500.854 132.465 501.09 132.308C501.331 132.15 501.452 131.835 501.452 131.363C501.452 130.886 501.331 130.568 501.09 130.411C500.854 130.248 500.468 130.167 499.933 130.167H498.894V132.544Z" fill="#1A66FF"/>
<path d="M331.318 284.78C331.743 285.152 331.956 285.627 331.956 286.204C331.956 286.781 331.743 287.259 331.318 287.637C330.893 288.009 330.25 288.216 329.39 288.258V288.967H328.776V288.258C327.91 288.216 327.265 288.009 326.84 287.637C326.415 287.259 326.202 286.781 326.202 286.204C326.202 285.627 326.415 285.152 326.84 284.78C327.265 284.407 327.91 284.2 328.776 284.158V283.418H329.39V284.158C330.25 284.2 330.893 284.407 331.318 284.78ZM326.848 286.204C326.848 287.138 327.491 287.639 328.776 287.708V284.709C327.491 284.777 326.848 285.276 326.848 286.204ZM329.39 287.708C330.67 287.639 331.31 287.138 331.31 286.204C331.31 285.276 330.67 284.777 329.39 284.709V287.708ZM337.511 288.967H336.866V284.064L336.968 283.599H336.787L334.024 288.967H332.726V283.418H333.363V288.321L333.261 288.786H333.442L336.212 283.418H337.511V288.967ZM340.125 283.418C340.886 283.418 341.458 283.549 341.841 283.812C342.224 284.074 342.415 284.546 342.415 285.228C342.415 285.916 342.224 286.393 341.841 286.661C341.458 286.923 340.886 287.054 340.125 287.054H339.212V288.967H338.567V283.418H340.125ZM340.133 286.503C340.395 286.503 340.616 286.488 340.794 286.456C340.973 286.425 341.14 286.367 341.298 286.283C341.455 286.194 341.573 286.063 341.652 285.89C341.731 285.716 341.77 285.496 341.77 285.228C341.77 284.73 341.631 284.397 341.353 284.229C341.08 284.056 340.673 283.969 340.133 283.969H339.212V286.503H340.133ZM343.255 288.967V283.418H344.554L346.128 288.786H346.309L347.891 283.418H349.182V288.967H348.536V284.064L348.646 283.599H348.457L346.868 288.967H345.569L343.979 283.599H343.798L343.901 284.064V288.967H343.255ZM350.242 288.967V283.418H353.681V283.969H350.887V285.913H353.287V286.464H350.887V288.416H353.681V288.967H350.242ZM358.519 283.418H359.156V288.967H358.519V286.503H355.245V288.967H354.6V283.418H355.245V285.952H358.519V283.418ZM364.137 283.418H364.775V288.967H364.137V286.503H360.863V288.967H360.218V283.418H360.863V285.952H364.137V283.418ZM366.482 283.418V285.488H367.52C368.234 285.488 368.772 285.617 369.134 285.874C369.501 286.131 369.685 286.585 369.685 287.235C369.685 287.881 369.501 288.332 369.134 288.589C368.772 288.841 368.234 288.967 367.52 288.967H365.836V283.418H366.482ZM370.456 283.418H371.101V288.967H370.456V283.418ZM366.482 288.416H367.52C368.056 288.416 368.441 288.337 368.677 288.18C368.919 288.022 369.039 287.708 369.039 287.235C369.039 286.758 368.919 286.44 368.677 286.283C368.441 286.12 368.056 286.039 367.52 286.039H366.482V288.416ZM372.162 288.967V283.418H375.601V283.969H372.807V285.913H375.207V286.464H372.807V288.416H375.601V288.967H372.162ZM331.718 297.243C331.251 296.702 331.018 296.018 331.018 295.189C331.018 294.36 331.251 293.677 331.718 293.142C332.185 292.607 332.817 292.34 333.615 292.34C334.318 292.34 334.89 292.539 335.33 292.938C335.776 293.331 336.041 293.872 336.125 294.559H335.48C335.417 294.024 335.225 293.612 334.905 293.323C334.585 293.035 334.155 292.89 333.615 292.89C332.985 292.89 332.502 293.1 332.167 293.52C331.831 293.94 331.663 294.496 331.663 295.189C331.663 295.886 331.831 296.445 332.167 296.865C332.502 297.285 332.985 297.495 333.615 297.495C334.155 297.495 334.585 297.35 334.905 297.062C335.225 296.768 335.417 296.353 335.48 295.818H336.125C336.041 296.511 335.776 297.056 335.33 297.455C334.89 297.849 334.318 298.045 333.615 298.045C332.817 298.045 332.185 297.778 331.718 297.243ZM341.838 297.967H341.193V293.064L341.295 292.599H341.114L338.352 297.967H337.053V292.418H337.69V297.321L337.588 297.786H337.769L340.539 292.418H341.838V297.967ZM342.894 297.967V292.418H344.193L345.767 297.786H345.948L347.53 292.418H348.82V297.967H348.175V293.064L348.285 292.599H348.096L346.506 297.967H345.208L343.618 292.599H343.437L343.539 293.064V297.967H342.894ZM349.88 297.967V292.418H351.352C352.081 292.418 352.619 292.515 352.966 292.709C353.312 292.904 353.485 293.26 353.485 293.78C353.485 294.152 353.38 294.436 353.17 294.63C352.96 294.824 352.695 294.931 352.375 294.952V295.141C353.388 295.162 353.894 295.614 353.894 296.495C353.894 297.03 353.708 297.411 353.335 297.636C352.963 297.857 352.42 297.967 351.706 297.967H349.88ZM350.526 294.803H351.376C351.879 294.803 352.249 294.743 352.485 294.622C352.722 294.496 352.84 294.249 352.84 293.882C352.84 293.714 352.816 293.573 352.769 293.457C352.722 293.342 352.661 293.252 352.588 293.19C352.52 293.127 352.415 293.079 352.273 293.048C352.137 293.011 352.005 292.99 351.879 292.985C351.754 292.974 351.586 292.969 351.376 292.969H350.526V294.803ZM350.526 297.416H351.73C352.249 297.416 352.632 297.348 352.879 297.211C353.126 297.07 353.249 296.794 353.249 296.385C353.249 296.002 353.123 295.734 352.871 295.582C352.619 295.43 352.239 295.354 351.73 295.354H350.526V297.416ZM354.482 295.189C354.482 294.36 354.716 293.677 355.183 293.142C355.65 292.607 356.282 292.34 357.08 292.34C357.872 292.34 358.499 292.607 358.961 293.142C359.428 293.677 359.661 294.36 359.661 295.189C359.661 296.023 359.428 296.708 358.961 297.243C358.499 297.778 357.872 298.045 357.08 298.045C356.282 298.045 355.65 297.778 355.183 297.243C354.716 296.708 354.482 296.023 354.482 295.189ZM355.128 295.189C355.128 295.881 355.293 296.44 355.624 296.865C355.959 297.285 356.445 297.495 357.08 297.495C357.709 297.495 358.189 297.285 358.52 296.865C358.85 296.44 359.016 295.881 359.016 295.189C359.016 294.501 358.85 293.948 358.52 293.528C358.189 293.103 357.709 292.89 357.08 292.89C356.445 292.89 355.959 293.103 355.624 293.528C355.293 293.948 355.128 294.501 355.128 295.189ZM364.461 292.418V297.967H363.816V292.969H361.722C361.722 293.415 361.717 293.79 361.706 294.095C361.701 294.399 361.683 294.743 361.651 295.126C361.625 295.503 361.586 295.818 361.533 296.07C361.486 296.322 361.415 296.579 361.321 296.841C361.231 297.098 361.121 297.303 360.99 297.455C360.864 297.602 360.704 297.725 360.51 297.825C360.321 297.92 360.106 297.967 359.865 297.967V297.416C360.059 297.416 360.227 297.363 360.368 297.258C360.515 297.148 360.631 296.965 360.715 296.708C360.804 296.445 360.875 296.199 360.927 295.968C360.98 295.737 361.014 295.393 361.029 294.937C361.05 294.48 361.064 294.113 361.069 293.835C361.074 293.552 361.077 293.127 361.077 292.56C361.077 292.497 361.077 292.45 361.077 292.418H364.461ZM366.166 292.418V294.488H367.205C367.919 294.488 368.457 294.617 368.819 294.874C369.186 295.131 369.37 295.585 369.37 296.235C369.37 296.881 369.186 297.332 368.819 297.589C368.457 297.841 367.919 297.967 367.205 297.967H365.521V292.418H366.166ZM370.141 292.418H370.786V297.967H370.141V292.418ZM366.166 297.416H367.205C367.741 297.416 368.126 297.337 368.362 297.18C368.604 297.022 368.724 296.708 368.724 296.235C368.724 295.758 368.604 295.44 368.362 295.283C368.126 295.12 367.741 295.039 367.205 295.039H366.166V297.416Z" fill="#1A66FF"/>
<path fill-rule="evenodd" clip-rule="evenodd" d="M449.971 163.719V144.018H449.972H450.489H516.335H516.854V163.719H516.335V144.536H450.489L450.489 163.719H449.971Z" fill="#1A66FF"/>
<line x1="199.293" y1="307.854" x2="199.293" y2="327.555" stroke="#1A66FF" stroke-width="0.518465"/>
<line x1="284.839" y1="307.854" x2="284.839" y2="327.555" stroke="#1A66FF" stroke-width="0.518465"/>
<line x1="199.034" y1="308.112" x2="285.099" y2="308.112" stroke="#1A66FF" stroke-width="0.518465"/>
<line x1="384.902" y1="375.771" x2="384.902" y2="356.07" stroke="#1A66FF" stroke-width="0.518465"/>
<line x1="199.812" y1="375.771" x2="199.812" y2="356.07" stroke="#1A66FF" stroke-width="0.518465"/>
<line x1="385.161" y1="375.512" x2="199.032" y2="375.512" stroke="#1A66FF" stroke-width="0.518465"/>
<line x1="313.873" y1="307.854" x2="313.874" y2="327.555" stroke="#1A66FF" stroke-width="0.518465"/>
<line x1="385.42" y1="307.854" x2="385.42" y2="327.555" stroke="#1A66FF" stroke-width="0.518465"/>
<line x1="313.614" y1="308.112" x2="385.162" y2="308.112" stroke="#1A66FF" stroke-width="0.518465"/>
</g>
<defs>
<clipPath id="clip0_1_626">
<rect width="590" height="509" fill="white"/>
</clipPath>
</defs>
</svg>
