<svg width="590" height="510" viewBox="0 0 590 510" fill="none" xmlns="http://www.w3.org/2000/svg">
<rect y="0.768555" width="590" height="509" fill="#252526"/>
<path d="M369.27 332.771C412.124 332.771 446.864 298.238 446.864 255.64C446.864 213.041 412.124 178.509 369.27 178.509C326.416 178.509 291.676 213.041 291.676 255.64C291.676 298.238 326.416 332.771 369.27 332.771Z" fill="#96FF61"/>
<path d="M369.27 305.778C347.932 305.778 328.534 292.28 321.744 272.998C321.744 272.033 321.744 271.069 322.714 271.069C323.684 271.069 324.654 271.069 324.654 272.033C331.443 290.352 348.902 302.886 369.27 302.886C388.669 302.886 407.098 290.352 413.887 272.033C413.887 271.069 414.857 271.069 415.827 271.069C416.797 271.069 416.797 272.033 416.797 272.998C410.007 292.28 390.609 305.778 369.27 305.778Z" fill="#1A1F28"/>
<path d="M343.079 245.998C348.436 245.998 352.778 241.681 352.778 236.356C352.778 231.031 348.436 226.715 343.079 226.715C337.722 226.715 333.38 231.031 333.38 236.356C333.38 241.681 337.722 245.998 343.079 245.998Z" fill="#1A1F28"/>
<path d="M396.426 245.998C401.783 245.998 406.125 241.681 406.125 236.356C406.125 231.031 401.783 226.715 396.426 226.715C391.069 226.715 386.727 231.031 386.727 236.356C386.727 241.681 391.069 245.998 396.426 245.998Z" fill="#1A1F28"/>
<path d="M231.54 206.472C285.855 133.197 362.48 222.862 291.675 272.033C193.713 344.343 269.367 344.343 171.404 272.033C101.57 222.862 177.224 133.197 231.54 206.472Z" fill="#1A66FF"/>
<path d="M298.466 240.217C299.435 241.181 299.435 244.074 298.466 245.038C291.676 251.787 269.368 270.105 232.51 270.105C195.653 270.105 173.345 251.787 166.556 245.038C165.586 244.074 165.586 241.181 166.556 240.217C173.345 233.468 195.653 215.15 232.51 215.15C269.368 216.114 291.676 234.432 298.466 240.217Z" fill="white"/>
<path d="M231.543 272.034C194.686 272.034 172.378 254.68 163.649 246.966C162.679 246.002 161.709 245.038 161.709 243.11C161.709 242.146 162.679 240.217 163.649 239.253C171.408 231.54 193.716 214.186 231.543 214.186C269.371 214.186 290.709 231.54 299.438 239.253C300.408 240.217 301.378 241.182 301.378 243.11C301.378 244.074 300.408 246.002 299.438 246.966C291.679 253.715 269.371 272.034 231.543 272.034ZM231.543 218.042C195.656 218.042 174.318 235.397 166.559 242.146L165.589 243.11C165.589 244.074 165.589 244.074 166.559 244.074C174.318 251.787 195.656 268.177 231.543 268.177C267.431 268.177 288.769 250.823 296.529 244.074L297.499 243.11C297.499 242.146 297.499 242.146 296.529 242.146C289.739 234.433 267.431 218.042 231.543 218.042Z" fill="#1A1F28"/>
<path d="M231.537 258.537C240.108 258.537 247.056 251.63 247.056 243.111C247.056 234.591 240.108 227.685 231.537 227.685C222.966 227.685 216.019 234.591 216.019 243.111C216.019 251.63 222.966 258.537 231.537 258.537Z" fill="#1A1F28"/>
</svg>
