<svg width="591" height="507" viewBox="0 0 591 507" fill="none" xmlns="http://www.w3.org/2000/svg">
<rect width="591" height="507" fill="#1A66FF"/>
<path fill-rule="evenodd" clip-rule="evenodd" d="M347.46 140.862V163.531H372.575V186.2H397.69V322.214H372.575V344.883H347.46V367.552H221.885V344.883H196.77V322.214H171.655V186.2H196.77V163.531H221.885V140.862H347.46ZM322.345 299.545H247V276.876H221.885V254.207H196.77V276.876H221.885V299.545L247 299.545V322.214H322.345V299.545ZM347.46 276.876H322.345V299.545L347.46 299.545V276.876ZM347.46 276.876H372.575V254.207H347.46V276.876ZM221.885 186.2H247V231.538H221.885V186.2ZM347.46 186.2H322.345V231.538H347.46V186.2Z" fill="#96FF60"/>
<rect x="222.759" y="65.5171" width="125.138" height="24.8966" fill="#96FF60"/>
<rect x="347.896" y="90.4141" width="24.8966" height="25.5517" fill="#96FF60"/>
<rect x="372.793" y="115.965" width="24.8966" height="24.8966" fill="#96FF60"/>
<rect x="397.689" y="140.862" width="25.5517" height="25.5517" fill="#96FF60"/>
<rect x="146.104" y="140.862" width="25.5517" height="25.5517" fill="#96FF60"/>
<rect width="25.5517" height="25.5517" transform="matrix(-1 0 0 1 222.759 90.4141)" fill="#96FF60"/>
<rect width="24.8966" height="24.8966" transform="matrix(-1 0 0 1 197.207 115.965)" fill="#96FF60"/>
<rect x="347.241" y="442.896" width="125.138" height="24.8966" transform="rotate(180 347.241 442.896)" fill="#96FF60"/>
<rect x="222.104" y="418" width="25.5517" height="25.5517" transform="rotate(180 222.104 418)" fill="#96FF60"/>
<rect x="196.552" y="392.448" width="24.8966" height="24.8966" transform="rotate(180 196.552 392.448)" fill="#96FF60"/>
<rect x="171.655" y="367.552" width="25.5517" height="24.8966" transform="rotate(180 171.655 367.552)" fill="#96FF60"/>
<rect x="423.241" y="367.552" width="25.5517" height="24.8966" transform="rotate(180 423.241 367.552)" fill="#96FF60"/>
<rect width="24.8966" height="25.5517" transform="matrix(1 0 0 -1 347.241 418)" fill="#96FF60"/>
<rect width="24.8966" height="24.8966" transform="matrix(1 0 0 -1 372.138 392.448)" fill="#96FF60"/>
</svg>
