<svg width="1200" height="675" viewBox="0 0 1200 675" fill="none" xmlns="http://www.w3.org/2000/svg">
<rect width="1200" height="675" fill="url(#paint0_linear_0_4788)"/>
<path d="M415.858 363.71C394.693 363.71 386 349.351 386 349.351L394.693 344.288C394.693 344.288 401.118 354.263 415.102 354.263C425.684 354.263 429.086 350.863 429.086 347.84C429.086 337.26 389.024 347.084 389.024 324.412C389.024 316.099 397.338 307.786 413.968 307.786C426.818 307.786 433.999 310.809 433.999 310.809L441.18 306.653V321.389L434.755 325.168C434.755 325.168 427.196 317.233 414.724 317.233C406.031 317.233 403.008 320.256 403.008 322.901C403.008 333.481 443.07 323.656 443.07 345.573C443.07 355.019 434.377 363.71 415.858 363.71Z" fill="url(#paint1_linear_0_4788)"/>
<path d="M457.836 362.198V319.122L452.167 309.298H482.025C498.276 309.298 506.591 317.611 506.591 327.813C506.591 338.015 498.276 346.328 482.025 346.328H471.82V362.198H457.836ZM471.82 337.637H480.513C488.072 337.637 492.607 333.103 492.607 327.813C492.607 322.523 488.072 317.989 480.513 317.989H471.82V337.637Z" fill="url(#paint2_linear_0_4788)"/>
<path d="M508.141 362.198L527.795 317.989L522.881 309.298H547.07L570.503 362.198H555.007L550.849 352.752H523.637L519.48 362.198H508.141ZM527.795 342.927H546.692L537.243 321.389L527.795 342.927Z" fill="url(#paint3_linear_0_4788)"/>
<path d="M580.742 362.198V319.122L575.073 309.298H605.687C621.561 309.298 629.497 317.233 629.497 327.057C629.497 338.771 618.159 342.55 618.159 342.55L633.655 362.198H617.025L604.175 344.817H594.726V362.198H580.742ZM594.726 336.126H604.175C611.356 336.126 615.514 331.969 615.514 327.057C615.514 322.145 611.356 317.989 604.175 317.989H594.726V336.126Z" fill="url(#paint4_linear_0_4788)"/>
<path d="M656.025 362.198V319.122H639.773L634.104 309.298H689.284V319.122H670.009V362.198H656.025Z" fill="url(#paint5_linear_0_4788)"/>
<path d="M688.109 362.198L707.762 317.989L702.848 309.298H727.037L750.47 362.198H734.974L730.816 352.752H703.604L699.447 362.198H688.109ZM707.762 342.927H726.659L717.21 321.389L707.762 342.927Z" fill="url(#paint6_linear_0_4788)"/>
<path d="M760.71 362.198V319.122L755.04 309.298H774.694V329.702H780.363L798.882 309.298H812.488L790.945 332.725L814 362.198H796.615L779.607 339.527H774.694V362.198H760.71Z" fill="url(#paint7_linear_0_4788)"/>
<path d="M493.098 413.234V391.417L490.227 386.441H501.329L509.561 400.794L517.792 386.441H525.258V413.234H518.175V395.627L508.029 413.234L497.884 395.627V413.234H493.098Z" fill="url(#paint8_linear_0_4788)"/>
<path d="M548.232 414C538.661 414 532.152 407.493 532.152 399.838C532.152 392.182 538.661 385.675 548.232 385.675C557.803 385.675 564.312 392.182 564.312 399.838C564.312 407.493 557.803 414 548.232 414ZM548.232 409.215C553.018 409.215 557.038 405.196 557.038 399.838C557.038 394.479 553.018 390.46 548.232 390.46C543.446 390.46 539.426 394.479 539.426 399.838C539.426 405.196 543.446 409.215 548.232 409.215Z" fill="url(#paint9_linear_0_4788)"/>
<path d="M582.879 414C572.159 414 567.756 406.727 567.756 406.727L572.159 404.163C572.159 404.163 575.413 409.215 582.496 409.215C587.856 409.215 589.579 407.493 589.579 405.962C589.579 400.603 569.288 405.579 569.288 394.096C569.288 389.885 573.499 385.675 581.922 385.675C588.43 385.675 592.067 387.206 592.067 387.206L595.705 385.101V392.565L592.45 394.479C592.45 394.479 588.622 390.46 582.305 390.46C577.902 390.46 576.37 391.991 576.37 393.33C576.37 398.689 596.662 393.713 596.662 404.814C596.662 409.598 592.259 414 582.879 414Z" fill="url(#paint10_linear_0_4788)"/>
<path d="M617.924 414C608.352 414 601.844 407.493 601.844 399.838C601.844 392.182 608.352 385.675 617.924 385.675C622.518 385.675 625.772 387.206 625.772 387.206L629.409 385.101V393.33L626.155 395.244C626.155 395.244 623.475 390.651 618.115 390.651C613.138 390.651 609.118 394.67 609.118 399.838C609.118 405.005 613.138 409.024 618.115 409.024C624.432 409.024 627.495 403.971 627.495 403.971L631.898 406.536C631.898 406.536 627.495 414 617.924 414Z" fill="url(#paint11_linear_0_4788)"/>
<path d="M651.236 414C641.665 414 635.156 407.493 635.156 399.838C635.156 392.182 641.665 385.675 651.236 385.675C660.808 385.675 667.316 392.182 667.316 399.838C667.316 407.493 660.808 414 651.236 414ZM651.236 409.215C656.022 409.215 660.042 405.196 660.042 399.838C660.042 394.479 656.022 390.46 651.236 390.46C646.451 390.46 642.431 394.479 642.431 399.838C642.431 405.196 646.451 409.215 651.236 409.215Z" fill="url(#paint12_linear_0_4788)"/>
<path d="M679.201 413.234L669.247 386.441H677.67L683.795 403.091L689.921 386.441H692.601L698.727 403.091L704.852 386.441H710.595L700.641 413.234H694.515L689.921 400.794L685.327 413.234H679.201Z" fill="url(#paint13_linear_0_4788)"/>
<path d="M473.745 279.756V265.21L471.831 261.893H490.718L488.804 265.21H478.467V269.804H486.507V273.121H478.467V279.756H473.745Z" fill="url(#paint14_linear_0_4788)"/>
<path d="M501.952 280.266C495.571 280.266 491.232 275.928 491.232 270.824C491.232 265.721 495.571 261.383 501.952 261.383C508.333 261.383 512.672 265.721 512.672 270.824C512.672 275.928 508.333 280.266 501.952 280.266ZM501.952 277.076C505.142 277.076 507.822 274.397 507.822 270.824C507.822 267.252 505.142 264.573 501.952 264.573C498.761 264.573 496.081 267.252 496.081 270.824C496.081 274.397 498.761 277.076 501.952 277.076Z" fill="url(#paint15_linear_0_4788)"/>
<path d="M526.204 280.266C519.823 280.266 515.484 275.928 515.484 270.824C515.484 265.721 519.823 261.383 526.204 261.383C532.585 261.383 536.924 265.721 536.924 270.824C536.924 275.928 532.585 280.266 526.204 280.266ZM526.204 277.076C529.394 277.076 532.074 274.397 532.074 270.824C532.074 267.252 529.394 264.573 526.204 264.573C523.014 264.573 520.334 267.252 520.334 270.824C520.334 274.397 523.014 277.076 526.204 277.076Z" fill="url(#paint16_linear_0_4788)"/>
<path d="M544.828 279.756V265.21H539.341L537.426 261.893H556.059V265.21H549.55V279.756H544.828Z" fill="url(#paint17_linear_0_4788)"/>
<path d="M559.638 279.756V265.21L557.724 261.893H568.571C573.421 261.893 575.59 264.062 575.59 266.486C575.59 268.911 572.91 270.033 572.91 270.033V270.084C572.91 270.084 576.866 271.08 576.866 274.652C576.866 277.332 574.442 279.756 569.337 279.756H559.638ZM564.36 276.821H568.699C570.868 276.821 572.017 275.673 572.017 274.269C572.017 272.866 570.868 271.718 568.699 271.718H564.36V276.821ZM564.36 268.911H568.188C570.103 268.911 570.996 268.017 570.996 266.869C570.996 265.721 570.103 264.828 568.188 264.828H564.36V268.911Z" fill="url(#paint18_linear_0_4788)"/>
<path d="M578.543 279.756L585.18 264.828L583.52 261.893H591.688L599.6 279.756H594.368L592.964 276.566H583.776L582.372 279.756H578.543ZM585.18 273.249H591.56L588.37 265.976L585.18 273.249Z" fill="url(#paint19_linear_0_4788)"/>
<path d="M603.058 279.756V265.21L601.144 261.893H607.78V276.438H617.862V279.756H603.058Z" fill="url(#paint20_linear_0_4788)"/>
<path d="M621.702 279.756V265.21L619.788 261.893H626.424V276.438H636.506V279.756H621.702Z" fill="url(#paint21_linear_0_4788)"/>
<path d="M654.894 280.266C648.513 280.266 644.174 275.928 644.174 270.824C644.174 265.721 648.513 261.383 654.894 261.383C657.957 261.383 660.126 262.403 660.126 262.403L662.551 261V266.486L660.381 267.762C660.381 267.762 658.595 264.7 655.021 264.7C651.703 264.7 649.023 267.379 649.023 270.824C649.023 274.269 651.703 276.949 655.021 276.949C659.233 276.949 661.275 273.58 661.275 273.58L664.21 275.29C664.21 275.29 661.275 280.266 654.894 280.266Z" fill="url(#paint22_linear_0_4788)"/>
<path d="M668.412 279.756V265.21L666.498 261.893H673.134V276.438H683.216V279.756H668.412Z" fill="url(#paint23_linear_0_4788)"/>
<path d="M695.09 280.266C689.602 280.266 686.029 276.694 686.029 271.845V265.21L684.114 261.893H690.751V271.845C690.751 275.162 692.665 277.076 695.472 277.076C698.28 277.076 700.194 275.162 700.194 271.845V261.893H704.15V271.845C704.15 276.694 700.577 280.266 695.09 280.266Z" fill="url(#paint24_linear_0_4788)"/>
<path d="M710.013 279.756V265.21L708.099 261.893H718.946C723.796 261.893 725.965 264.062 725.965 266.486C725.965 268.911 723.285 270.033 723.285 270.033V270.084C723.285 270.084 727.241 271.08 727.241 274.652C727.241 277.332 724.817 279.756 719.712 279.756H710.013ZM714.735 276.821H719.074C721.243 276.821 722.392 275.673 722.392 274.269C722.392 272.866 721.243 271.718 719.074 271.718H714.735V276.821ZM714.735 268.911H718.563C720.478 268.911 721.371 268.017 721.371 266.869C721.371 265.721 720.478 264.828 718.563 264.828H714.735V268.911Z" fill="url(#paint25_linear_0_4788)"/>
<defs>
<linearGradient id="paint0_linear_0_4788" x1="600" y1="0" x2="600" y2="675" gradientUnits="userSpaceOnUse">
<stop stop-color="#020101"/>
<stop offset="1" stop-color="#171415"/>
</linearGradient>
<linearGradient id="paint1_linear_0_4788" x1="386" y1="337.5" x2="814" y2="337.5" gradientUnits="userSpaceOnUse">
<stop stop-color="#C8102E"/>
<stop offset="1" stop-color="#42060F"/>
</linearGradient>
<linearGradient id="paint2_linear_0_4788" x1="386" y1="337.5" x2="814" y2="337.5" gradientUnits="userSpaceOnUse">
<stop stop-color="#C8102E"/>
<stop offset="1" stop-color="#42060F"/>
</linearGradient>
<linearGradient id="paint3_linear_0_4788" x1="386" y1="337.5" x2="814" y2="337.5" gradientUnits="userSpaceOnUse">
<stop stop-color="#C8102E"/>
<stop offset="1" stop-color="#42060F"/>
</linearGradient>
<linearGradient id="paint4_linear_0_4788" x1="386" y1="337.5" x2="814" y2="337.5" gradientUnits="userSpaceOnUse">
<stop stop-color="#C8102E"/>
<stop offset="1" stop-color="#42060F"/>
</linearGradient>
<linearGradient id="paint5_linear_0_4788" x1="386" y1="337.5" x2="814" y2="337.5" gradientUnits="userSpaceOnUse">
<stop stop-color="#C8102E"/>
<stop offset="1" stop-color="#42060F"/>
</linearGradient>
<linearGradient id="paint6_linear_0_4788" x1="386" y1="337.5" x2="814" y2="337.5" gradientUnits="userSpaceOnUse">
<stop stop-color="#C8102E"/>
<stop offset="1" stop-color="#42060F"/>
</linearGradient>
<linearGradient id="paint7_linear_0_4788" x1="386" y1="337.5" x2="814" y2="337.5" gradientUnits="userSpaceOnUse">
<stop stop-color="#C8102E"/>
<stop offset="1" stop-color="#42060F"/>
</linearGradient>
<linearGradient id="paint8_linear_0_4788" x1="386" y1="337.5" x2="814" y2="337.5" gradientUnits="userSpaceOnUse">
<stop stop-color="#C8102E"/>
<stop offset="1" stop-color="#42060F"/>
</linearGradient>
<linearGradient id="paint9_linear_0_4788" x1="386" y1="337.5" x2="814" y2="337.5" gradientUnits="userSpaceOnUse">
<stop stop-color="#C8102E"/>
<stop offset="1" stop-color="#42060F"/>
</linearGradient>
<linearGradient id="paint10_linear_0_4788" x1="386" y1="337.5" x2="814" y2="337.5" gradientUnits="userSpaceOnUse">
<stop stop-color="#C8102E"/>
<stop offset="1" stop-color="#42060F"/>
</linearGradient>
<linearGradient id="paint11_linear_0_4788" x1="386" y1="337.5" x2="814" y2="337.5" gradientUnits="userSpaceOnUse">
<stop stop-color="#C8102E"/>
<stop offset="1" stop-color="#42060F"/>
</linearGradient>
<linearGradient id="paint12_linear_0_4788" x1="386" y1="337.5" x2="814" y2="337.5" gradientUnits="userSpaceOnUse">
<stop stop-color="#C8102E"/>
<stop offset="1" stop-color="#42060F"/>
</linearGradient>
<linearGradient id="paint13_linear_0_4788" x1="386" y1="337.5" x2="814" y2="337.5" gradientUnits="userSpaceOnUse">
<stop stop-color="#C8102E"/>
<stop offset="1" stop-color="#42060F"/>
</linearGradient>
<linearGradient id="paint14_linear_0_4788" x1="386" y1="337.5" x2="814" y2="337.5" gradientUnits="userSpaceOnUse">
<stop stop-color="#C8102E"/>
<stop offset="1" stop-color="#42060F"/>
</linearGradient>
<linearGradient id="paint15_linear_0_4788" x1="386" y1="337.5" x2="814" y2="337.5" gradientUnits="userSpaceOnUse">
<stop stop-color="#C8102E"/>
<stop offset="1" stop-color="#42060F"/>
</linearGradient>
<linearGradient id="paint16_linear_0_4788" x1="386" y1="337.5" x2="814" y2="337.5" gradientUnits="userSpaceOnUse">
<stop stop-color="#C8102E"/>
<stop offset="1" stop-color="#42060F"/>
</linearGradient>
<linearGradient id="paint17_linear_0_4788" x1="386" y1="337.5" x2="814" y2="337.5" gradientUnits="userSpaceOnUse">
<stop stop-color="#C8102E"/>
<stop offset="1" stop-color="#42060F"/>
</linearGradient>
<linearGradient id="paint18_linear_0_4788" x1="386" y1="337.5" x2="814" y2="337.5" gradientUnits="userSpaceOnUse">
<stop stop-color="#C8102E"/>
<stop offset="1" stop-color="#42060F"/>
</linearGradient>
<linearGradient id="paint19_linear_0_4788" x1="386" y1="337.5" x2="814" y2="337.5" gradientUnits="userSpaceOnUse">
<stop stop-color="#C8102E"/>
<stop offset="1" stop-color="#42060F"/>
</linearGradient>
<linearGradient id="paint20_linear_0_4788" x1="386" y1="337.5" x2="814" y2="337.5" gradientUnits="userSpaceOnUse">
<stop stop-color="#C8102E"/>
<stop offset="1" stop-color="#42060F"/>
</linearGradient>
<linearGradient id="paint21_linear_0_4788" x1="386" y1="337.5" x2="814" y2="337.5" gradientUnits="userSpaceOnUse">
<stop stop-color="#C8102E"/>
<stop offset="1" stop-color="#42060F"/>
</linearGradient>
<linearGradient id="paint22_linear_0_4788" x1="386" y1="337.5" x2="814" y2="337.5" gradientUnits="userSpaceOnUse">
<stop stop-color="#C8102E"/>
<stop offset="1" stop-color="#42060F"/>
</linearGradient>
<linearGradient id="paint23_linear_0_4788" x1="386" y1="337.5" x2="814" y2="337.5" gradientUnits="userSpaceOnUse">
<stop stop-color="#C8102E"/>
<stop offset="1" stop-color="#42060F"/>
</linearGradient>
<linearGradient id="paint24_linear_0_4788" x1="386" y1="337.5" x2="814" y2="337.5" gradientUnits="userSpaceOnUse">
<stop stop-color="#C8102E"/>
<stop offset="1" stop-color="#42060F"/>
</linearGradient>
<linearGradient id="paint25_linear_0_4788" x1="386" y1="337.5" x2="814" y2="337.5" gradientUnits="userSpaceOnUse">
<stop stop-color="#C8102E"/>
<stop offset="1" stop-color="#42060F"/>
</linearGradient>
</defs>
</svg>
